<svg width="178" height="28" viewBox="0 0 178 28" fill="none" xmlns="http://www.w3.org/2000/svg">
<path fill-rule="evenodd" clip-rule="evenodd" d="M49.89 18.5586C50.593 18.5667 51.171 18.7408 51.623 19.077C52.075 19.4132 52.41 19.8587 52.627 20.4126C52.846 20.9654 52.953 21.5689 52.952 22.2251C52.952 22.8427 52.842 23.4169 52.623 23.9485C52.403 24.4801 52.075 24.9104 51.636 25.2385C51.198 25.5686 50.651 25.7377 49.995 25.7478C49.5977 25.7496 49.2051 25.6599 48.847 25.4856C48.4941 25.3129 48.1928 25.0484 47.974 24.7191H47.948V27.9643H46.1V18.7428H47.857V19.6126H47.883C48.109 19.2512 48.394 18.9848 48.74 18.8127C49.086 18.6406 49.47 18.5565 49.89 18.5586ZM137.279 15.9188C137.969 15.9198 138.599 16.0524 139.174 16.3137C139.738 16.5665 140.228 16.9619 140.597 17.4619C140.971 17.9652 141.204 18.5808 141.293 19.3089H139.312C139.241 18.8424 138.997 18.4211 138.628 18.1323C138.244 17.8239 137.768 17.6568 137.278 17.6584C136.67 17.6675 136.178 17.8254 135.808 18.1302C135.432 18.4411 135.151 18.8542 134.998 19.321C134.831 19.8091 134.748 20.3336 134.751 20.8925C134.746 21.4088 134.829 21.9221 134.998 22.4094C135.166 22.8853 135.435 23.2751 135.808 23.5779C136.178 23.8806 136.67 24.0366 137.278 24.0477C137.904 24.0366 138.393 23.8391 138.745 23.4574C139.097 23.0726 139.312 22.5663 139.39 21.9355H141.37C141.252 23.1242 140.829 24.0589 140.102 24.7423C139.376 25.4248 138.434 25.7742 137.279 25.7873C136.316 25.7772 135.495 25.5544 134.814 25.1231C134.142 24.6983 133.6 24.0911 133.252 23.3703C132.892 22.6342 132.71 21.8089 132.707 20.8925C132.71 19.9508 132.892 19.1053 133.252 18.3591C133.612 17.6128 134.134 17.0225 134.814 16.5871C135.494 16.1517 136.316 15.9279 137.279 15.9188ZM93.592 18.5586C94.357 18.5687 94.989 18.7641 95.489 19.1408C95.989 19.5195 96.353 20.0136 96.583 20.6242C96.8157 21.2571 96.9112 21.9333 96.863 22.6068H92.003C92.03 23.1992 92.183 23.6366 92.464 23.9181C92.744 24.1996 93.142 24.3393 93.658 24.3363C94.035 24.3262 94.358 24.232 94.622 24.0528C94.886 23.8736 95.051 23.6731 95.117 23.4523H96.747C96.482 24.2523 96.081 24.8355 95.545 25.2041C95.01 25.5716 94.358 25.7529 93.592 25.7478C92.519 25.7296 91.682 25.3954 91.076 24.7454C90.472 24.0943 90.164 23.2326 90.154 22.1583C90.157 21.4697 90.304 20.8561 90.591 20.3164C90.8675 19.7866 91.2826 19.3442 91.791 19.0375C92.306 18.7236 92.906 18.5636 93.592 18.5586ZM57.146 18.5586C57.604 18.5505 58.059 18.598 58.509 18.6963C58.959 18.7955 59.334 18.9859 59.635 19.2674C59.935 19.5478 60.091 19.9579 60.103 20.4956V24.0477C60.103 24.3626 60.119 24.6603 60.157 24.9337C60.193 25.2071 60.253 25.4177 60.337 25.5625H58.462C58.4293 25.4558 58.4013 25.3477 58.378 25.2385C58.3551 25.1283 58.3397 25.0167 58.332 24.9043C58.032 25.2101 57.684 25.4289 57.286 25.5585C56.8911 25.6882 56.4781 25.7522 56.063 25.7478C55.41 25.7498 54.868 25.5838 54.439 25.2507C54.009 24.9165 53.787 24.4001 53.771 23.7034C53.778 23.1951 53.891 22.7992 54.111 22.5157C54.331 22.2322 54.614 22.0256 54.96 21.895C55.3162 21.7637 55.6864 21.6753 56.063 21.6317C56.5726 21.5777 57.0797 21.5021 57.583 21.4049C58.01 21.3188 58.234 21.095 58.255 20.7346C58.245 20.3427 58.127 20.0886 57.899 19.9691C57.671 19.8516 57.389 19.7969 57.055 19.8091C56.699 19.806 56.415 19.885 56.201 20.047C55.988 20.209 55.865 20.4723 55.829 20.8389H53.979C54.024 20.2577 54.201 19.802 54.51 19.4678C54.821 19.1337 55.209 18.8978 55.676 18.759C56.1535 18.6187 56.6489 18.5512 57.146 18.5586ZM144.425 18.7428V22.5947C144.419 23.1566 144.51 23.5759 144.695 23.8543C144.88 24.1318 145.185 24.2715 145.61 24.2715C146.109 24.2766 146.474 24.1247 146.704 23.8148C146.934 23.505 147.048 23.0058 147.045 22.3172V18.7428H148.893V25.5625H147.136V24.6137H147.097C146.875 24.9773 146.56 25.2725 146.184 25.4673C145.829 25.6522 145.436 25.7483 145.037 25.7478C144.074 25.7367 143.417 25.4795 143.068 24.9762C142.718 24.473 142.555 23.7946 142.575 22.9379V18.7428H144.425ZM124.941 18.5586C125.706 18.5687 126.338 18.7641 126.837 19.1408C127.337 19.5195 127.702 20.0136 127.932 20.6242C128.165 21.2571 128.26 21.9333 128.212 22.6068H123.352C123.378 23.1992 123.532 23.6366 123.812 23.9181C124.092 24.1996 124.489 24.3393 125.006 24.3363C125.384 24.3262 125.706 24.232 125.971 24.0528C126.235 23.8736 126.4 23.6731 126.466 23.4523H128.095C127.83 24.2523 127.43 24.8355 126.894 25.2041C126.357 25.5716 125.707 25.7529 124.941 25.7478C123.868 25.7296 123.03 25.3954 122.425 24.7454C121.82 24.0943 121.513 23.2326 121.502 22.1583C121.507 21.4697 121.652 20.8561 121.94 20.3164C122.216 19.7864 122.631 19.3438 123.14 19.0375C123.654 18.7236 124.254 18.5636 124.941 18.5586ZM174.126 18.5586C174.586 18.5505 175.039 18.598 175.489 18.6963C175.939 18.7955 176.314 18.9859 176.614 19.2674C176.914 19.5478 177.071 19.9579 177.084 20.4956V24.0477C177.082 24.3626 177.1 24.6603 177.136 24.9337C177.173 25.2071 177.234 25.4177 177.318 25.5625H175.442C175.409 25.4558 175.381 25.3477 175.357 25.2385C175.334 25.1284 175.319 25.0167 175.312 24.9043C175.012 25.2101 174.664 25.4289 174.266 25.5585C173.871 25.6882 173.458 25.7522 173.043 25.7478C172.39 25.7498 171.848 25.5838 171.419 25.2507C170.989 24.9165 170.767 24.4001 170.751 23.7034C170.758 23.1951 170.871 22.7992 171.091 22.5157C171.31 22.2322 171.592 22.0256 171.94 21.895C172.296 21.7637 172.666 21.6753 173.043 21.6317C173.553 21.5777 174.06 21.5021 174.563 21.4049C174.99 21.3188 175.214 21.095 175.233 20.7346C175.225 20.3427 175.107 20.0886 174.879 19.9691C174.65 19.8516 174.369 19.7969 174.034 19.8091C173.68 19.806 173.395 19.885 173.182 20.047C172.968 20.209 172.845 20.4723 172.809 20.8389H170.959C171.003 20.2577 171.179 19.802 171.49 19.4678C171.8 19.1337 172.189 18.8978 172.656 18.759C173.133 18.6187 173.629 18.5512 174.126 18.5586ZM120.436 16.1436V25.5625H118.678V24.6927H118.652C118.432 25.0593 118.144 25.3286 117.79 25.4977C117.418 25.6698 117.014 25.7553 116.605 25.7478C115.928 25.7377 115.365 25.5605 114.918 25.2193C114.468 24.8746 114.121 24.4111 113.914 23.8796C113.689 23.3119 113.577 22.705 113.583 22.0934C113.583 21.4717 113.693 20.8946 113.915 20.3619C114.138 19.8273 114.47 19.396 114.912 19.0659C115.354 18.7378 115.905 18.5667 116.566 18.5586C116.97 18.5586 117.35 18.6426 117.706 18.8127C118.059 18.9828 118.345 19.236 118.561 19.5721H118.587V16.1426H120.435L120.436 16.1436ZM74.278 18.5586C74.738 18.5505 75.192 18.598 75.641 18.6963C76.091 18.7955 76.467 18.9859 76.766 19.2674C77.067 19.5478 77.224 19.9579 77.236 20.4956V24.0477C77.234 24.3626 77.253 24.6603 77.289 24.9337C77.326 25.2071 77.386 25.4177 77.47 25.5625H75.595C75.562 25.4558 75.5336 25.3477 75.51 25.2385C75.4871 25.1283 75.4717 25.0167 75.464 24.9043C75.164 25.2101 74.816 25.4289 74.418 25.5585C74.0235 25.6881 73.6108 25.7521 73.196 25.7478C72.542 25.7498 72 25.5838 71.571 25.2507C71.142 24.9165 70.919 24.4001 70.904 23.7034C70.911 23.1951 71.024 22.7992 71.244 22.5157C71.462 22.2322 71.744 22.0256 72.092 21.895C72.4485 21.7635 72.819 21.6751 73.196 21.6317C73.7056 21.5777 74.2127 21.5021 74.716 21.4049C75.143 21.3188 75.366 21.095 75.386 20.7346C75.377 20.3427 75.259 20.0886 75.031 19.9691C74.803 19.8516 74.523 19.7969 74.186 19.8091C73.832 19.806 73.548 19.885 73.335 20.047C73.121 20.209 72.997 20.4723 72.961 20.8389H71.111C71.155 20.2577 71.333 19.802 71.643 19.4678C71.953 19.1337 72.341 18.8978 72.808 18.759C73.2855 18.6187 73.7809 18.5512 74.278 18.5586ZM41.739 18.5586C42.505 18.5687 43.137 18.7641 43.635 19.1408C44.135 19.5195 44.5 20.0136 44.73 20.6242C44.96 21.2368 45.054 21.897 45.01 22.6068H40.15C40.178 23.1992 40.33 23.6366 40.61 23.9181C40.89 24.1996 41.289 24.3393 41.805 24.3363C42.184 24.3262 42.505 24.232 42.769 24.0528C43.033 23.8736 43.199 23.6731 43.264 23.4523H44.893C44.629 24.2523 44.23 24.8355 43.693 25.2041C43.157 25.5716 42.505 25.7529 41.739 25.7478C40.668 25.7296 39.829 25.3954 39.224 24.7454C38.619 24.0943 38.311 23.2326 38.301 22.1583C38.306 21.4697 38.451 20.8561 38.738 20.3164C39.0145 19.7866 39.4296 19.3442 39.938 19.0375C40.452 18.7236 41.053 18.5636 41.739 18.5586ZM160.099 18.7428V22.5947C160.093 23.1566 160.184 23.5759 160.369 23.8543C160.553 24.1318 160.859 24.2715 161.285 24.2715C161.784 24.2766 162.149 24.1247 162.378 23.8148C162.608 23.505 162.722 23.0058 162.718 22.3172V18.7428H164.568V25.5625H162.81V24.6137H162.771C162.549 24.9773 162.234 25.2725 161.858 25.4673C161.503 25.6522 161.11 25.7484 160.711 25.7478C159.748 25.7367 159.091 25.4795 158.742 24.9762C158.393 24.473 158.23 23.7946 158.249 22.9379V18.7428H160.099ZM21.579 17.2341L21.635 21.2105C21.566 21.979 21.418 22.299 20.999 22.9369C21.189 23.102 21.469 23.2508 21.685 23.3592C21.515 23.6143 21.26 23.913 21.188 24.228C21.555 24.5479 21.719 25.1858 21.637 25.6597C21.055 25.7124 20.554 25.524 20.215 25.1858C19.92 25.2638 19.529 25.523 19.348 25.6678C19.25 25.4329 19.172 25.1555 19.023 24.954C17.796 25.7873 16.815 25.4765 14.72 25.5139L14.427 25.521V25.4542C15.167 25.1757 15.405 25.0562 15.965 24.7616C17.189 24.1186 17.406 23.4159 18.542 23.3723C18.619 22.8792 18.581 22.8215 18.547 22.5197C18.821 22.54 19.106 22.6038 19.342 22.5542C19.332 21.8504 19.609 21.4383 19.739 21.2378C19.844 21.0738 19.881 21.0019 20.067 20.7255C20.657 19.8476 21.087 18.6902 21.417 17.5966L21.523 17.2341H21.579ZM0.163 17.2108C0.505 18.4087 0.963 19.7291 1.619 20.7042C1.805 20.9806 1.841 21.0535 1.946 21.2166C2.076 21.417 2.353 21.8302 2.342 22.5329C2.579 22.5815 2.864 22.5187 3.137 22.5005C3.104 22.8002 3.066 22.8579 3.144 23.3511C4.279 23.3946 4.496 24.0973 5.721 24.7383C6.282 25.035 6.518 25.1534 7.258 25.4319V25.4977C4.96 25.4238 3.944 25.8055 2.663 24.9307C2.514 25.1332 2.436 25.4106 2.337 25.6476C2.156 25.5018 1.766 25.2425 1.47 25.1636C1.132 25.5038 0.631 25.6911 0.048 25.6395C-0.034 25.1636 0.129 24.5256 0.496 24.2067C0.425 23.8928 0.17 23.5931 0 23.3379C0.218 23.2296 0.496 23.0807 0.684 22.9146C0.268 22.2767 0.118 21.9578 0.05 21.1902L0.108 17.2108H0.163ZM156.007 16.6974V18.7428H157.362V19.9944H156.007V23.3733C156 23.6842 156.052 23.8958 156.163 24.0082C156.273 24.1196 156.483 24.1712 156.788 24.1662C156.885 24.1662 156.982 24.1621 157.075 24.154C157.17 24.1459 157.265 24.1318 157.362 24.1135V25.5757C157.202 25.601 157.03 25.6192 156.841 25.6283C156.651 25.6385 156.466 25.6415 156.281 25.6405C155.696 25.6597 155.201 25.5585 154.795 25.3408C154.387 25.1221 154.175 24.6826 154.158 24.0214V19.9944H153.036V18.7428H154.158V16.6974H156.007ZM68.947 16.6974V18.7428H70.303V19.9944H68.947V23.3733C68.941 23.6842 68.993 23.8958 69.104 24.0082C69.214 24.1196 69.423 24.1712 69.729 24.1662C69.827 24.1662 69.923 24.1621 70.016 24.154C70.11 24.1459 70.205 24.1318 70.303 24.1135V25.5757C70.13 25.6024 69.9558 25.62 69.781 25.6283C69.592 25.6385 69.407 25.6415 69.221 25.6405C68.637 25.6597 68.141 25.5585 67.735 25.3408C67.328 25.1221 67.116 24.6826 67.099 24.0214V19.9944H65.979V18.7428H67.099V16.6974H68.947ZM108.012 16.6974V18.7428H109.367V19.9944H108.012V23.3733C108.005 23.6842 108.058 23.8958 108.168 24.0082C108.279 24.1196 108.488 24.1712 108.794 24.1662C108.89 24.1662 108.986 24.1621 109.081 24.154C109.174 24.1459 109.271 24.1318 109.367 24.1135V25.5757C109.207 25.601 109.034 25.6192 108.846 25.6283C108.658 25.6385 108.47 25.6415 108.286 25.6405C107.701 25.6597 107.206 25.5585 106.799 25.3408C106.393 25.1221 106.181 24.6826 106.163 24.0214V19.9944H105.043V18.7428H106.163V16.6974H108.012ZM86.547 18.5586C87.277 18.5484 87.867 18.7337 88.315 19.1155C88.765 19.4952 88.995 20.122 89.009 20.9968V25.5635H87.159V21.6955C87.179 21.2297 87.121 20.8379 86.989 20.5229C86.855 20.209 86.535 20.047 86.025 20.0339C85.517 20.0521 85.18 20.2323 85.015 20.5756C84.848 20.9199 84.773 21.3148 84.786 21.7623V25.5625H82.938V21.736C82.9456 21.4713 82.9356 21.2065 82.908 20.9432C82.8874 20.7034 82.789 20.4773 82.628 20.3002C82.47 20.128 82.199 20.0399 81.816 20.0339C81.6482 20.0367 81.4827 20.0747 81.33 20.1453C81.134 20.2242 80.961 20.3771 80.807 20.605C80.654 20.8308 80.573 21.1649 80.564 21.6044V25.5635H78.714V18.7428H80.46V19.6643H80.486C80.728 19.3139 81.022 19.0415 81.369 18.8492C81.716 18.6568 82.109 18.5606 82.546 18.5586C82.976 18.5535 83.364 18.6406 83.71 18.8178C84.056 18.996 84.324 19.2856 84.513 19.6906C84.709 19.3848 84.98 19.1215 85.323 18.9018C85.668 18.6821 86.075 18.5687 86.547 18.5586ZM65.465 18.5586C65.6023 18.5581 65.7388 18.5803 65.869 18.6244V20.364C65.7658 20.3414 65.6612 20.3255 65.556 20.3164C65.439 20.305 65.3215 20.2989 65.204 20.2982C64.535 20.3144 64.062 20.53 63.784 20.9432C63.506 21.3563 63.371 21.8727 63.38 22.4894V25.5625H61.53V18.7428H63.287V20.0075H63.313C63.495 19.5721 63.783 19.2238 64.179 18.9616C64.573 18.6983 65.002 18.5646 65.465 18.5586ZM101.809 18.5586C102.772 18.5687 103.429 18.8269 103.778 19.3281C104.126 19.8314 104.291 20.5098 104.271 21.3664V25.5625H102.421V21.7097C102.426 21.1497 102.336 20.7295 102.151 20.4521C101.967 20.1726 101.661 20.0339 101.235 20.0339C100.735 20.0278 100.372 20.1807 100.142 20.4916C99.912 20.8014 99.798 21.2986 99.801 21.9871V25.5625H97.953V18.7428H99.71V19.6906H99.749C99.991 19.3089 100.295 19.0253 100.661 18.837C101.028 18.6507 101.411 18.5565 101.809 18.5586ZM33.175 16.1426C33.987 16.1415 34.709 16.3127 35.341 16.6549C35.974 16.9972 36.473 17.5116 36.838 18.2021C37.203 18.8907 37.389 19.7564 37.397 20.7994C37.397 21.7188 37.242 22.5329 36.934 23.2478C36.6435 23.939 36.1552 24.5262 35.532 24.9337C34.908 25.3438 34.122 25.5544 33.175 25.5615H29.162V16.1426H33.175ZM169.9 18.5586C170.037 18.5579 170.174 18.5801 170.304 18.6244V20.364C170.201 20.3414 170.097 20.3255 169.992 20.3164C169.875 20.305 169.757 20.2989 169.639 20.2982C168.971 20.3144 168.497 20.53 168.219 20.9432C167.941 21.3563 167.807 21.8727 167.814 22.4894V25.5625H165.966V18.7428H167.724V20.0075H167.75C167.931 19.5721 168.22 19.2238 168.615 18.9616C169.01 18.6983 169.438 18.5646 169.9 18.5586ZM152.192 16.1436V25.5625H150.344V16.1436H152.192ZM10.842 0.425384C16.71 0.425384 21.466 6.0401 21.466 12.9691C21.466 19.8951 16.71 25.5099 10.842 25.5099C4.975 25.5099 0.218 19.8951 0.218 12.9691C0.218 6.0401 4.975 0.425384 10.842 0.425384ZM18.636 23.6204C17.638 23.5637 17.131 24.5034 15.898 25.041L15.658 25.1372L14.768 25.4198C16.336 25.1929 18.146 24.631 19.093 24.1135L19.26 24.0173H19.275C19.2502 23.9468 19.238 23.8724 19.239 23.7976C19.0528 23.6957 18.8472 23.6352 18.636 23.6204ZM3.049 23.6002C2.83799 23.6145 2.63242 23.6742 2.446 23.7753C2.453 23.8462 2.43 23.9272 2.411 23.9961H2.425C3.312 24.5378 5.252 25.1585 6.92 25.3975L6.027 25.116C4.617 24.6046 4.11 23.5384 3.049 23.6002ZM20.319 24.2036C20.2541 24.286 20.1684 24.3489 20.071 24.3859C20.13 24.635 20.118 24.6958 20.275 24.88C20.497 25.1555 20.9 25.3732 21.271 25.3914L21.408 25.3894L20.319 24.2036ZM19.545 24.3586C19.4844 24.5426 19.3696 24.7034 19.216 24.8193C19.349 24.9692 19.386 25.1737 19.42 25.3053L19.44 25.3722L19.778 24.4295C19.7242 24.426 19.6712 24.414 19.621 24.394L19.551 24.3606L19.545 24.3586ZM1.366 24.1824L0.278 25.3671C0.681 25.4066 1.161 25.1707 1.41 24.8608C1.567 24.6745 1.556 24.6148 1.616 24.3646C1.51765 24.3284 1.43112 24.2653 1.366 24.1824ZM2.139 24.3363L2.133 24.3393C2.06694 24.3782 1.99315 24.4017 1.917 24.4082H1.909L2.247 25.3499C2.288 25.2385 2.311 24.9762 2.468 24.8001C2.31464 24.6826 2.19995 24.521 2.139 24.3363ZM11.809 24.068C11.2748 24.1333 10.7355 24.1449 10.199 24.1024L9.881 24.068V24.554C10.4152 24.6153 10.9539 24.6255 11.49 24.5844L11.809 24.554V24.068ZM175.234 22.2251C175.069 22.3567 174.844 22.4428 174.563 22.4883L173.695 22.621C173.398 22.6716 173.145 22.7678 172.932 22.9096C172.721 23.0513 172.61 23.2893 172.6 23.6245C172.61 23.9667 172.724 24.1996 172.942 24.3231C173.161 24.4446 173.424 24.5024 173.734 24.4953C174.209 24.4841 174.553 24.3788 174.767 24.1793C174.981 23.9799 175.113 23.7581 175.167 23.5141C175.22 23.269 175.242 23.0736 175.234 22.9248V22.2251ZM58.254 22.2251C58.089 22.3567 57.865 22.4428 57.583 22.4883L56.716 22.621C56.418 22.6716 56.164 22.7678 55.953 22.9096C55.741 23.0513 55.63 23.2893 55.62 23.6245C55.63 23.9667 55.744 24.1996 55.962 24.3231C56.181 24.4446 56.445 24.5024 56.754 24.4953C57.229 24.4841 57.573 24.3788 57.787 24.1793C58.001 23.9799 58.134 23.7581 58.187 23.5141C58.24 23.269 58.262 23.0736 58.255 22.9248L58.254 22.2251ZM75.386 22.2251C75.221 22.3567 74.997 22.4428 74.715 22.4883L73.847 22.621C73.551 22.6716 73.297 22.7678 73.085 22.9096C72.873 23.0513 72.762 23.2893 72.753 23.6245C72.763 23.9667 72.876 24.1996 73.095 24.3231C73.313 24.4446 73.577 24.5024 73.887 24.4953C74.361 24.4841 74.705 24.3788 74.919 24.1793C75.1181 24.0057 75.258 23.7729 75.319 23.5141C75.372 23.269 75.395 23.0736 75.386 22.9248V22.2251ZM117.061 19.967C116.463 19.9883 116.039 20.2101 115.791 20.6364C115.543 21.0616 115.424 21.5649 115.431 22.1461C115.429 22.5008 115.486 22.8533 115.599 23.189C115.711 23.5222 115.889 23.7936 116.129 24.0072C116.369 24.2199 116.68 24.3302 117.061 24.3363C117.664 24.316 118.082 24.0882 118.316 23.6558C118.55 23.2235 118.662 22.7142 118.652 22.1329C118.661 21.5578 118.546 21.0576 118.306 20.6343C118.067 20.2111 117.652 19.9873 117.061 19.967ZM49.487 19.967C49.085 19.9741 48.767 20.0835 48.532 20.2921C48.292 20.5109 48.1177 20.7938 48.029 21.1082C47.929 21.4413 47.881 21.7968 47.883 22.1724C47.875 22.7476 47.995 23.2468 48.241 23.671C48.488 24.0933 48.908 24.3171 49.5 24.3363C50.097 24.316 50.516 24.0933 50.756 23.67C50.996 23.2468 51.112 22.7486 51.104 22.1724C51.106 21.8038 51.054 21.4535 50.948 21.1194C50.842 20.7852 50.67 20.5118 50.433 20.2992C50.196 20.0855 49.88 19.9741 49.487 19.967ZM19.604 23.5829C19.5715 23.6155 19.5457 23.6543 19.5279 23.697C19.5102 23.7396 19.501 23.7855 19.5007 23.8318C19.5003 23.9253 19.5365 24.0152 19.6015 24.0816C19.6665 24.1481 19.7549 24.1857 19.8472 24.1862C19.9396 24.1867 20.0284 24.15 20.094 24.0842C20.1596 24.0184 20.1968 23.9289 20.1973 23.8353C20.1977 23.7418 20.1615 23.6519 20.0965 23.5855C20.0315 23.519 19.9431 23.4814 19.8508 23.4809C19.7584 23.4804 19.6696 23.5171 19.604 23.5829ZM1.59 23.5647C1.52541 23.6308 1.48936 23.7202 1.48973 23.8132C1.49011 23.9062 1.52688 23.9953 1.592 24.0609C1.64069 24.1099 1.70265 24.1432 1.77004 24.1566C1.83744 24.17 1.90723 24.1628 1.97059 24.1359C2.03395 24.1091 2.08802 24.0639 2.12596 24.0059C2.1639 23.9479 2.184 23.8799 2.18372 23.8103C2.18344 23.7408 2.16279 23.6729 2.12439 23.6153C2.08598 23.5576 2.03154 23.5128 1.96797 23.4865C1.9044 23.4602 1.83455 23.4536 1.76726 23.4675C1.69998 23.4814 1.63829 23.5153 1.59 23.5647ZM5.695 22.2514V22.8539C6.196 23.2285 6.728 23.5485 7.286 23.8098L7.624 23.9596V23.4371C6.93264 23.1287 6.28386 22.7304 5.694 22.2524L5.695 22.2514ZM15.996 22.2484C15.5038 22.6459 14.9715 22.9897 14.408 23.2741L14.068 23.4351V23.9566C14.6378 23.7173 15.1819 23.4197 15.692 23.0686L15.996 22.8498V22.2484ZM32.667 17.8832H31.207V23.8219H33.031C33.434 23.826 33.811 23.7369 34.161 23.5536C34.511 23.3713 34.796 23.0716 35.014 22.6574C35.234 22.2423 35.345 21.6894 35.353 20.9978C35.367 20.0369 35.175 19.2805 34.773 18.7277C34.37 18.1758 33.668 17.8943 32.667 17.8832ZM20.841 23.1263C20.8291 23.1347 20.819 23.1454 20.811 23.1577C20.809 23.1901 20.701 23.3622 20.491 23.5151L20.395 23.5789L20.398 23.5931C20.416 23.6326 20.428 23.6741 20.436 23.7146L20.443 23.7784L20.453 23.7672C20.453 23.7672 21.237 23.5019 21.387 23.4402C21.175 23.3946 20.866 23.1627 20.842 23.1313L20.841 23.1263ZM0.845 23.104C0.843 23.105 0.843 23.106 0.843 23.108C0.82 23.1404 0.511 23.3733 0.299 23.4189C0.449 23.4807 1.233 23.746 1.233 23.746L1.243 23.7561C1.24582 23.6925 1.26148 23.6301 1.289 23.5728L1.291 23.5597C1.016 23.3916 0.879 23.1718 0.874 23.1374C0.876 23.1334 0.847 23.104 0.844 23.104H0.845ZM10.842 2.1822C10.627 2.1822 10.412 2.19232 10.199 2.21156L9.881 2.24599V23.6903C10.4147 23.7589 10.954 23.7701 11.49 23.7237L11.809 23.6893V2.24599C11.4884 2.20364 11.1654 2.18233 10.842 2.1822ZM18.782 22.7607C18.782 22.7607 18.862 22.9906 18.775 23.3622C18.775 23.3622 18.95 23.3592 19.227 23.4766L19.336 23.5262L19.339 23.5161C19.3618 23.4753 19.3901 23.4378 19.423 23.4047L19.451 23.3774L19.481 23.3531L19.479 23.349L18.782 22.7607ZM2.905 22.7405L2.205 23.3278L2.203 23.3328C2.26162 23.3758 2.3104 23.4311 2.346 23.4948L2.351 23.505C2.69 23.3379 2.911 23.3399 2.911 23.3399C2.825 22.9693 2.905 22.7405 2.905 22.7405ZM21.513 17.5318C21.34 18.193 21.447 18.2436 20.841 19.8303C20.364 21.0758 19.342 21.7704 19.668 22.8519C19.668 22.8519 19.698 23.0716 19.828 23.2245C19.8835 23.2199 19.9394 23.2254 19.993 23.2407L20.049 23.2559C20.682 21.578 21.337 19.7503 21.513 17.5318ZM0.173 17.5116C0.348 19.7291 1.003 21.5578 1.635 23.2336L1.692 23.2184C1.74537 23.2037 1.80094 23.1989 1.856 23.2042C1.94004 23.096 1.99514 22.9677 2.016 22.8316C2.342 21.7482 1.321 21.0556 0.844 19.8091C0.239 18.2224 0.344 18.1707 0.174 17.5105L0.173 17.5116ZM7.623 2.91024C7.04468 3.18168 6.49882 3.51903 5.996 3.91572L5.695 4.16279V21.7735C6.18263 22.1932 6.71491 22.5566 7.282 22.8569L7.624 23.027V2.90821L7.623 2.91024ZM14.069 2.91226V23.024C14.6469 22.7508 15.1924 22.4121 15.695 22.0145L15.996 21.7684V4.16988C15.413 3.66402 14.7647 3.24093 14.069 2.91226ZM124.889 19.9681C124.501 19.9762 124.196 20.0622 123.975 20.2273C123.768 20.3742 123.604 20.5755 123.501 20.8095C123.414 21.0022 123.363 21.2096 123.351 21.4211H126.361C126.282 20.9452 126.128 20.5837 125.899 20.3376C125.669 20.0916 125.333 19.9691 124.889 19.9681ZM93.54 19.9681C93.153 19.9762 92.849 20.0622 92.626 20.2273C92.404 20.3923 92.246 20.5857 92.152 20.8095C92.065 21.0022 92.0141 21.2096 92.002 21.4211H95.012C94.934 20.9452 94.779 20.5837 94.55 20.3376C94.321 20.0916 93.984 19.9691 93.54 19.9681ZM41.687 19.9681C41.3 19.9762 40.994 20.0622 40.773 20.2273C40.5658 20.3742 40.4019 20.5755 40.299 20.8095C40.212 21.0022 40.1611 21.2096 40.149 21.4211H43.159C43.081 20.9452 42.926 20.5837 42.697 20.3376C42.468 20.0916 42.131 19.9691 41.687 19.9681ZM3.436 5.40218C1.979 7.43847 1.098 10.0803 1.098 12.9691C1.098 15.7173 1.897 18.2447 3.232 20.2384L3.436 20.5331V19.6866C2.262 17.8184 1.567 15.4915 1.567 12.9691C1.567 10.5855 2.187 8.37814 3.245 6.56563L3.436 6.24971V5.40218ZM18.256 5.41231V6.25983C19.425 8.12803 20.118 10.4509 20.118 12.9691C20.118 15.3457 19.5 17.55 18.447 19.3615L18.257 19.6764V20.5219C19.709 18.4887 20.587 15.8519 20.587 12.9681C20.587 10.0843 19.709 7.44657 18.257 5.41332L18.256 5.41231ZM3.436 6.96661C2.485 8.68292 1.928 10.7486 1.928 12.9702C1.928 15.052 2.418 16.9972 3.262 18.6456L3.436 18.9717V6.96661ZM18.256 6.97977V18.9585C19.203 17.2452 19.755 15.1847 19.755 12.9702C19.755 10.7526 19.203 8.69203 18.256 6.97977ZM153.892 5.56217L156.108 11.3673L158.178 5.56116H159L156.082 13.4116C155.867 13.9756 155.642 14.3655 155.407 14.5812C155.17 14.7958 154.805 14.8981 154.31 14.889C154.15 14.8829 154.021 14.8778 153.925 14.8708C153.843 14.8674 153.762 14.851 153.685 14.8222V14.1255C153.869 14.1652 154.057 14.1872 154.245 14.1913C154.595 14.1863 154.849 14.087 155.002 13.8946C155.157 13.7012 155.295 13.444 155.418 13.1231L155.705 12.3434L153.021 5.56116H153.893L153.892 5.56217ZM162.455 5.36371C162.851 5.35497 163.246 5.40965 163.625 5.52572C164 5.64216 164.309 5.85885 164.552 6.17478C164.796 6.49272 164.922 6.95243 164.931 7.55289V11.1678C164.93 11.3278 164.971 11.4513 165.049 11.5394C165.129 11.6255 165.25 11.669 165.412 11.67C165.502 11.6699 165.591 11.6524 165.674 11.6184V12.315C165.584 12.3353 165.501 12.3495 165.421 12.3555C165.341 12.3657 165.247 12.3687 165.138 12.3687C164.734 12.3636 164.47 12.2553 164.345 12.0426C164.221 11.83 164.165 11.5424 164.176 11.182H164.15C163.878 11.6255 163.558 11.9677 163.193 12.2047C162.829 12.4436 162.33 12.5641 161.699 12.5661C161.064 12.5692 160.533 12.4082 160.109 12.0842C159.683 11.7611 159.462 11.2579 159.446 10.5754C159.458 9.94864 159.638 9.49197 159.988 9.20338C160.338 8.91379 160.785 8.72039 161.331 8.62115C161.902 8.51742 162.477 8.43837 163.054 8.38421C163.395 8.35788 163.656 8.28701 163.837 8.17461C164.019 8.0612 164.11 7.82223 164.111 7.45973C164.098 6.91092 163.925 6.53728 163.593 6.33983C163.26 6.14237 162.847 6.05023 162.351 6.06036C161.833 6.05732 161.409 6.18186 161.081 6.43703C160.75 6.69018 160.574 7.09318 160.551 7.64503H159.732C159.784 6.85118 160.055 6.27097 160.546 5.90442C161.038 5.53888 161.674 5.35763 162.455 5.36371ZM65.98 5.36371C66.384 5.3556 66.774 5.4113 67.149 5.52572C67.525 5.64216 67.833 5.85885 68.077 6.17478C68.321 6.49272 68.447 6.95243 68.455 7.55289V11.1678C68.455 11.3278 68.495 11.4513 68.574 11.5394C68.654 11.6255 68.774 11.669 68.938 11.67C69.0272 11.6701 69.1155 11.6526 69.198 11.6184V12.315C69.11 12.3353 69.026 12.3495 68.945 12.3555C68.865 12.3657 68.771 12.3687 68.664 12.3687C68.259 12.3636 67.994 12.2553 67.87 12.0426C67.745 11.83 67.689 11.5424 67.7 11.182H67.675C67.402 11.6255 67.084 11.9677 66.719 12.2047C66.353 12.4436 65.856 12.5641 65.225 12.5661C64.588 12.5692 64.057 12.4082 63.633 12.0842C63.208 11.7611 62.986 11.2579 62.97 10.5754C62.982 9.94864 63.163 9.49197 63.512 9.20338C63.862 8.91379 64.309 8.72039 64.856 8.62115C65.403 8.5199 65.977 8.44193 66.58 8.38421C66.92 8.35788 67.182 8.28701 67.362 8.17461C67.543 8.0612 67.634 7.82223 67.635 7.45973C67.624 6.91092 67.45 6.53728 67.117 6.33983C66.785 6.14237 66.371 6.05023 65.877 6.06036C65.358 6.05732 64.934 6.18186 64.605 6.43703C64.275 6.69018 64.1 7.09318 64.077 7.64503H63.257C63.309 6.85118 63.579 6.27097 64.071 5.90442C64.562 5.53888 65.198 5.35763 65.98 5.36371ZM140.589 5.56116V9.9942C140.599 10.6098 140.742 11.0746 141.015 11.3916C141.287 11.7085 141.745 11.8675 142.388 11.8685C142.856 11.8604 143.24 11.7267 143.538 11.4685C143.843 11.1983 144.071 10.8505 144.198 10.461C144.34 10.0479 144.41 9.6074 144.409 9.13757V5.56014H145.229V12.3677H144.475V11.1404H144.449C144.226 11.5971 143.911 11.9495 143.504 12.1935C143.087 12.441 142.611 12.5691 142.128 12.5641C141.288 12.555 140.683 12.3231 140.314 11.8654C139.944 11.4098 139.763 10.781 139.77 9.98003V5.56014L140.589 5.56116ZM98.887 2.94872V12.3687H98.132V11.0766H98.106C97.9081 11.5319 97.5694 11.9097 97.141 12.153C96.7075 12.4167 96.2127 12.5592 95.707 12.5661C95.026 12.557 94.461 12.3889 94.014 12.0599C93.5656 11.7292 93.2189 11.2766 93.014 10.7546C92.7892 10.1852 92.6771 9.57661 92.684 8.9634C92.684 8.31434 92.794 7.71693 93.014 7.17419C93.234 6.63145 93.567 6.19604 94.014 5.86898C94.461 5.53989 95.026 5.37079 95.707 5.36269C96.222 5.36472 96.692 5.49028 97.119 5.74139C97.544 5.99454 97.852 6.36311 98.041 6.8532H98.067V2.94872H98.887ZM103.145 5.36371C103.864 5.37383 104.445 5.56419 104.888 5.93075C105.331 6.29527 105.65 6.76814 105.845 7.34632C106.041 7.9245 106.127 8.53914 106.103 9.18819H100.928C100.93 9.60335 101.008 10.0165 101.158 10.4235C101.309 10.8306 101.548 11.1708 101.872 11.4432C102.197 11.7166 102.622 11.8584 103.145 11.8685C103.741 11.8604 104.21 11.6984 104.553 11.3824C104.895 11.0675 105.13 10.6493 105.257 10.1248H106.077C105.907 10.9035 105.586 11.5019 105.115 11.9252C104.643 12.3474 103.986 12.5611 103.145 12.5661C102.435 12.558 101.855 12.39 101.407 12.0639C100.959 11.7366 100.617 11.2835 100.421 10.7607C100.205 10.1871 100.1 9.57712 100.109 8.9634C100.104 8.37179 100.21 7.7846 100.421 7.23292C100.631 6.68815 100.96 6.24363 101.407 5.89834C101.854 5.55204 102.434 5.37484 103.145 5.36371ZM122.67 5.36371C123.074 5.3556 123.463 5.4113 123.839 5.52572C124.215 5.64216 124.524 5.85885 124.767 6.17478C125.011 6.49272 125.137 6.95243 125.145 7.55289V11.1678C125.145 11.3278 125.185 11.4513 125.265 11.5394C125.345 11.6255 125.465 11.669 125.628 11.67C125.717 11.6701 125.805 11.6526 125.888 11.6184V12.315C125.8 12.3353 125.715 12.3495 125.635 12.3555C125.555 12.3657 125.461 12.3687 125.354 12.3687C124.95 12.3636 124.684 12.2553 124.56 12.0426C124.435 11.83 124.379 11.5424 124.39 11.182H124.366C124.093 11.6255 123.774 11.9677 123.409 12.2047C123.043 12.4436 122.544 12.5641 121.915 12.5661C121.278 12.5692 120.747 12.4082 120.323 12.0842C119.898 11.7611 119.677 11.2579 119.66 10.5754C119.672 9.94864 119.853 9.49197 120.202 9.20338C120.552 8.91379 120.999 8.72039 121.546 8.62115C122.093 8.5199 122.667 8.44193 123.27 8.38421C123.61 8.35788 123.871 8.28701 124.052 8.17461C124.233 8.0612 124.324 7.82223 124.325 7.45973C124.313 6.91092 124.14 6.53728 123.807 6.33983C123.475 6.14237 123.061 6.05023 122.567 6.06036C122.047 6.05732 121.624 6.18186 121.294 6.43703C120.965 6.69018 120.79 7.09318 120.767 7.64503H119.947C119.999 6.85118 120.27 6.27097 120.761 5.90442C121.252 5.53888 121.888 5.35763 122.67 5.36371ZM114.942 2.75126C115.526 2.74976 116.105 2.86862 116.642 3.1006C117.179 3.33349 117.63 3.67574 117.999 4.12735C118.367 4.58099 118.594 5.13689 118.681 5.79709H117.797C117.625 5.06803 117.28 4.50504 116.761 4.11115C116.241 3.71726 115.633 3.5188 114.941 3.51373C114.123 3.5269 113.455 3.73245 112.938 4.1314C112.42 4.52934 112.04 5.04272 111.797 5.66849C111.553 6.30239 111.43 6.97769 111.435 7.6582C111.433 8.35788 111.553 9.02112 111.797 9.6479C112.027 10.2583 112.422 10.7908 112.937 11.185C113.455 11.5829 114.123 11.7885 114.942 11.8027C115.808 11.7814 116.499 11.4877 117.016 10.9197C117.532 10.3527 117.836 9.6398 117.926 8.78013H118.811C118.677 9.94763 118.274 10.8681 117.6 11.5394C116.926 12.2107 116.04 12.553 114.942 12.5661C113.964 12.553 113.15 12.3201 112.499 11.8654C111.855 11.4189 111.349 10.7982 111.037 10.0742C110.708 9.31281 110.542 8.4893 110.551 7.6582C110.542 6.82708 110.708 6.00354 111.037 5.2422C111.349 4.51798 111.855 3.89721 112.499 3.45095C113.149 2.99732 113.964 2.7624 114.942 2.75126ZM33.149 2.75126C34.145 2.75126 34.994 3.01555 35.697 3.54107C36.4 4.06761 36.845 4.84527 37.032 5.87708H36.148C36.106 5.50648 35.961 5.14296 35.711 4.7835C35.4436 4.40787 35.0933 4.10066 34.688 3.88636C34.255 3.64841 33.742 3.52285 33.149 3.51272C32.33 3.5269 31.663 3.73245 31.146 4.13039C30.628 4.52934 30.248 5.04171 30.004 5.66849C29.7599 6.30246 29.6373 6.97775 29.643 7.6582C29.641 8.35788 29.761 9.02112 30.004 9.6479C30.2351 10.2584 30.6308 10.7909 31.146 11.185C31.663 11.5829 32.33 11.7885 33.149 11.8027C34.186 11.7824 34.986 11.4553 35.546 10.8205C36.106 10.1856 36.38 9.35932 36.369 8.34371H33.201V7.58023H37.149V12.3687H36.511L36.395 10.6534H36.369C36.045 11.3217 35.599 11.8097 35.029 12.1155C34.458 12.4193 33.831 12.5712 33.149 12.5661C32.172 12.553 31.357 12.3201 30.707 11.8654C30.0629 11.4195 29.5562 10.7987 29.245 10.0742C28.916 9.31272 28.75 8.48932 28.758 7.6582C28.758 6.78738 28.921 5.98239 29.245 5.2422C29.569 4.50302 30.056 3.9056 30.707 3.45095C31.357 2.99732 32.172 2.7624 33.149 2.75126ZM41.41 5.36371C42.13 5.37383 42.71 5.56419 43.153 5.93075C43.596 6.29527 43.916 6.76814 44.111 7.34632C44.306 7.9245 44.391 8.53914 44.367 9.18819H39.194C39.196 9.60335 39.274 10.0165 39.424 10.4235C39.575 10.8306 39.813 11.1708 40.138 11.4432C40.462 11.7166 40.887 11.8584 41.41 11.8685C42.007 11.8604 42.476 11.6984 42.818 11.3824C43.161 11.0675 43.394 10.6493 43.523 10.1248H44.341C44.171 10.9035 43.851 11.5019 43.381 11.9252C42.908 12.3474 42.251 12.5611 41.411 12.5661C40.701 12.558 40.121 12.39 39.673 12.0639C39.2251 11.737 38.8822 11.2837 38.687 10.7607C38.4716 10.187 38.3654 9.57714 38.374 8.9634C38.3699 8.37178 38.4761 7.78468 38.687 7.23292C38.8859 6.70341 39.2275 6.24103 39.673 5.89834C40.12 5.55204 40.7 5.37484 41.41 5.36371ZM133.27 5.36371C133.673 5.3556 134.063 5.4113 134.438 5.52572C134.814 5.64216 135.123 5.85885 135.367 6.17478C135.61 6.49272 135.736 6.95243 135.744 7.55289V11.1678C135.744 11.3278 135.784 11.4513 135.863 11.5394C135.943 11.6255 136.063 11.669 136.227 11.67C136.316 11.6701 136.404 11.6526 136.487 11.6184V12.315C136.399 12.3353 136.315 12.3495 136.235 12.3555C136.155 12.3657 136.062 12.3687 135.953 12.3687C135.549 12.3636 135.284 12.2553 135.159 12.0426C135.034 11.83 134.978 11.5424 134.991 11.182H134.965C134.692 11.6255 134.373 11.9677 134.008 12.2047C133.642 12.4436 133.145 12.5641 132.514 12.5661C131.877 12.5692 131.347 12.4082 130.923 12.0842C130.497 11.7611 130.277 11.2579 130.26 10.5754C130.271 9.94864 130.452 9.49197 130.802 9.20338C131.152 8.91379 131.599 8.72039 132.146 8.62115C132.692 8.5199 133.266 8.44193 133.869 8.38421C134.21 8.35788 134.471 8.28701 134.652 8.17461C134.832 8.0612 134.923 7.82223 134.926 7.45973C134.911 6.91092 134.74 6.53728 134.408 6.33983C134.074 6.14237 133.66 6.05023 133.165 6.06036C132.647 6.05732 132.223 6.18186 131.894 6.43703C131.564 6.69018 131.389 7.09318 131.366 7.64503H130.546C130.598 6.85118 130.87 6.27097 131.36 5.90442C131.851 5.53888 132.488 5.35763 133.27 5.36371ZM81.384 5.36371C81.788 5.3556 82.178 5.4113 82.552 5.52572C82.928 5.64216 83.237 5.85885 83.481 6.17478C83.724 6.49272 83.851 6.95243 83.859 7.55289V11.1678C83.859 11.3278 83.898 11.4513 83.979 11.5394C84.058 11.6255 84.179 11.669 84.341 11.67C84.4302 11.6701 84.5185 11.6526 84.601 11.6184V12.315C84.514 12.3353 84.429 12.3495 84.349 12.3555C84.269 12.3657 84.175 12.3687 84.067 12.3687C83.663 12.3636 83.398 12.2553 83.273 12.0426C83.149 11.83 83.093 11.5424 83.104 11.182H83.078C82.805 11.6255 82.488 11.9677 82.122 12.2047C81.756 12.4436 81.259 12.5641 80.628 12.5661C79.992 12.5692 79.462 12.4082 79.036 12.0842C78.611 11.7611 78.391 11.2579 78.374 10.5754C78.386 9.94864 78.567 9.49197 78.915 9.20338C79.265 8.91379 79.713 8.72039 80.26 8.62115C80.806 8.5199 81.38 8.44193 81.983 8.38421C82.324 8.35788 82.585 8.28701 82.765 8.17461C82.947 8.0612 83.038 7.82223 83.039 7.45973C83.027 6.91092 82.853 6.53728 82.521 6.33983C82.189 6.14237 81.775 6.05023 81.28 6.06036C80.762 6.05732 80.337 6.18186 80.008 6.43703C79.678 6.69018 79.503 7.09318 79.48 7.64503H78.661C78.712 6.85118 78.983 6.27097 79.475 5.90442C79.965 5.53888 80.602 5.35763 81.384 5.36371ZM55.162 5.36371C55.881 5.37383 56.463 5.56419 56.905 5.93075C57.349 6.29527 57.668 6.76814 57.863 7.34632C58.058 7.9245 58.144 8.53914 58.12 9.18819H52.947C52.95 9.6105 53.0276 10.0289 53.176 10.4235C53.326 10.8306 53.565 11.1708 53.89 11.4432C54.214 11.7166 54.639 11.8584 55.162 11.8685C55.759 11.8604 56.228 11.6984 56.57 11.3824C56.913 11.0675 57.147 10.6493 57.274 10.1248H58.094C57.924 10.9035 57.604 11.5019 57.132 11.9252C56.661 12.3474 56.005 12.5611 55.162 12.5661C54.452 12.558 53.872 12.39 53.426 12.0639C52.9777 11.7371 52.6345 11.2838 52.439 10.7607C52.2229 10.1872 52.117 9.57716 52.127 8.9634C52.1216 8.37175 52.2274 7.78446 52.439 7.23292C52.6382 6.70329 52.9801 6.2409 53.426 5.89834C53.873 5.55204 54.452 5.37484 55.162 5.36371ZM76.197 3.51475V5.56116H77.566V6.25882H76.197V11.0078C76.205 11.2063 76.242 11.3673 76.31 11.4888C76.394 11.6427 76.577 11.7298 76.862 11.75C77.096 11.75 77.331 11.7358 77.566 11.7105V12.4213C77.4442 12.4224 77.3225 12.4268 77.201 12.4345L77.019 12.4426L76.836 12.4467C76.295 12.4568 75.914 12.3454 75.691 12.1186C75.47 11.8897 75.364 11.4898 75.377 10.9177V6.25781H74.206V5.56014H75.377V3.51576H76.197V3.51475ZM86.797 3.51475V5.56116H88.165V6.25882H86.796V11.0078C86.804 11.2063 86.841 11.3673 86.908 11.4888C86.993 11.6427 87.176 11.7298 87.461 11.75C87.696 11.75 87.931 11.7358 88.165 11.7105V12.4213C88.0432 12.4224 87.9215 12.4268 87.8 12.4345C87.68 12.4416 87.558 12.4446 87.435 12.4467C86.895 12.4568 86.514 12.3454 86.29 12.1186C86.069 11.8897 85.963 11.4898 85.978 10.9177V6.25781H84.805V5.56014H85.978V3.51576H86.796L86.797 3.51475ZM128.083 3.51475V5.56116H129.451V6.25882H128.083V10.8519C128.074 11.1232 128.111 11.3369 128.196 11.4888C128.279 11.6427 128.463 11.7298 128.748 11.75C128.982 11.75 129.217 11.7358 129.451 11.7105V12.4213C129.329 12.4224 129.208 12.4268 129.086 12.4345L128.906 12.4426L128.721 12.4467C128.181 12.4568 127.801 12.3454 127.578 12.1186C127.355 11.8897 127.25 11.4898 127.263 10.9177V6.25781H126.091V5.56014H127.263V3.51576H128.083V3.51475ZM149.763 5.36371C150.692 5.37079 151.339 5.60571 151.703 6.06744C152.067 6.52816 152.24 7.16811 152.225 7.98728V12.3687H151.405V8.11791C151.417 7.51846 151.299 7.02939 151.05 6.64765C150.801 6.26895 150.35 6.07251 149.698 6.06036C149.041 6.07453 148.53 6.2973 148.163 6.72865C147.795 7.159 147.603 7.71591 147.586 8.39535V12.3677H146.766V5.56014H147.586V6.7327H147.612C147.772 6.31755 148.051 5.98644 148.442 5.74038C148.839 5.49279 149.297 5.36303 149.763 5.36371ZM138.213 2.94872V12.3687H137.394V2.9477L138.213 2.94872ZM62.543 5.468V6.2973C61.789 6.27705 61.186 6.49677 60.735 6.95952C60.283 7.42125 60.052 8.01462 60.041 8.73861V12.3677H59.222V5.56014H59.976V7.15495H60.002C60.215 6.60208 60.539 6.17781 60.974 5.88113C61.411 5.58445 61.932 5.44572 62.543 5.468ZM48.453 5.36269C49.383 5.36978 50.029 5.6047 50.393 6.06643C50.756 6.52715 50.93 7.1671 50.915 7.98627V12.3677H50.095V8.11791C50.108 7.51846 49.99 7.02939 49.741 6.64765C49.492 6.26895 49.041 6.07251 48.388 6.06036C47.732 6.07453 47.219 6.2973 46.853 6.72865C46.486 7.159 46.293 7.71591 46.275 8.39535V12.3677H45.457V5.56014H46.275V6.7327H46.302C46.463 6.31755 46.74 5.98644 47.133 5.74038C47.5298 5.49268 47.9869 5.36189 48.453 5.36269ZM70.923 2.9477V12.3677H70.105V2.9477H70.924H70.923ZM73.326 5.56014V12.3677H72.507V5.56014H73.326ZM164.111 8.64748H164.085C164.013 8.75249 163.906 8.82735 163.783 8.8581C163.643 8.90164 163.513 8.93303 163.394 8.95024L161.964 9.17301C161.486 9.24794 161.088 9.3816 160.766 9.57804C160.445 9.77245 160.278 10.0863 160.266 10.5207C160.28 10.941 160.433 11.27 160.726 11.506C161.019 11.7429 161.366 11.8634 161.764 11.8675C162.41 11.8624 162.96 11.671 163.412 11.2984C163.865 10.9237 164.097 10.4023 164.112 9.72891V8.64748H164.111ZM67.635 8.64748H67.609C67.5376 8.75222 67.4309 8.82708 67.309 8.8581C67.169 8.90164 67.039 8.93303 66.919 8.95024L65.487 9.17301C65.012 9.24794 64.612 9.3816 64.291 9.57804C63.969 9.77245 63.802 10.0863 63.79 10.5207C63.804 10.941 63.958 11.27 64.252 11.506C64.545 11.7429 64.89 11.8634 65.29 11.8675C65.935 11.8624 66.484 11.671 66.937 11.2984C67.389 10.9237 67.622 10.4023 67.635 9.72891V8.64748ZM95.707 6.05934C95.187 6.06947 94.765 6.21629 94.441 6.4988C94.116 6.78232 93.878 7.1428 93.728 7.58428C93.5757 8.0272 93.4999 8.4934 93.504 8.96239C93.502 9.44438 93.576 9.90409 93.728 10.3435C93.878 10.784 94.116 11.1455 94.441 11.429C94.765 11.7105 95.188 11.8584 95.707 11.8675C96.287 11.8573 96.749 11.7105 97.096 11.429C97.442 11.1455 97.691 10.784 97.843 10.3435C97.996 9.90409 98.07 9.44438 98.067 8.96239C98.0722 8.49332 97.9964 8.02693 97.843 7.58428C97.7009 7.15792 97.4418 6.78139 97.096 6.4988C96.749 6.21528 96.287 6.06947 95.707 6.05934ZM83.039 8.64748H83.013C82.9413 8.75242 82.8343 8.8273 82.712 8.8581C82.572 8.90164 82.442 8.93303 82.322 8.95024L80.891 9.17301C80.415 9.24794 80.016 9.3816 79.694 9.57804C79.373 9.77245 79.207 10.0863 79.194 10.5207C79.208 10.941 79.362 11.27 79.655 11.506C79.948 11.7429 80.294 11.8634 80.693 11.8675C81.338 11.8624 81.888 11.671 82.341 11.2984C82.792 10.9237 83.026 10.4023 83.039 9.72891V8.64748ZM124.325 8.64748H124.299C124.228 8.75222 124.121 8.82708 123.999 8.8581C123.857 8.90164 123.729 8.93303 123.609 8.95024L122.177 9.17301C121.702 9.24794 121.302 9.3816 120.981 9.57804C120.659 9.77245 120.493 10.0863 120.48 10.5207C120.494 10.941 120.648 11.27 120.942 11.506C121.234 11.7429 121.58 11.8634 121.98 11.8675C122.625 11.8624 123.174 11.671 123.627 11.2984C124.079 10.9237 124.312 10.4023 124.325 9.72891V8.64748ZM134.925 8.64748H134.9C134.828 8.75223 134.72 8.82701 134.598 8.8581C134.458 8.90164 134.328 8.93303 134.208 8.95024L132.778 9.17301C132.301 9.24794 131.901 9.3816 131.581 9.57804C131.259 9.77245 131.092 10.0863 131.079 10.5207C131.093 10.941 131.247 11.27 131.541 11.506C131.834 11.7429 132.179 11.8634 132.578 11.8675C133.225 11.8624 133.774 11.671 134.226 11.2984C134.679 10.9237 134.911 10.4023 134.926 9.72891L134.925 8.64748ZM21.638 0.326151C21.72 0.802061 21.556 1.43796 21.189 1.75894C21.261 2.0698 21.516 2.37155 21.686 2.62773C21.47 2.73506 21.189 2.88391 21 3.04997C21.419 3.6879 21.567 4.00787 21.636 4.7754L21.58 8.75178H21.524C21.182 7.55694 20.724 6.23654 20.068 5.26143C19.882 4.98399 19.845 4.9121 19.74 4.74806C19.61 4.54757 19.333 4.13545 19.343 3.43171C19.107 3.38311 18.822 3.44387 18.548 3.46614C18.582 3.1644 18.62 3.10567 18.543 2.61254C17.407 2.57103 17.19 1.86526 15.966 1.22532C15.406 0.93167 15.168 0.810161 14.428 0.531704V0.464874C16.728 0.540817 17.741 0.161102 19.024 1.03293C19.173 0.830413 19.251 0.55398 19.349 0.317038C19.53 0.461836 19.921 0.72308 20.216 0.800036C20.556 0.461836 21.056 0.272485 21.638 0.326151ZM2.337 0.295774C2.436 0.531704 2.514 0.809149 2.663 1.01166C3.889 0.17629 4.87 0.488163 6.965 0.452723L7.258 0.444622V0.511452C6.518 0.788897 6.282 0.909394 5.721 1.20405C4.496 1.84501 4.279 2.54774 3.144 2.59229C3.066 3.0844 3.104 3.14313 3.137 3.44285C2.864 3.4226 2.579 3.36185 2.342 3.41045C2.353 4.11318 2.075 4.52428 1.946 4.72781C1.841 4.89083 1.805 4.96273 1.619 5.24017C1.03 6.11807 0.6 7.27342 0.27 8.36902L0.164 8.73051H0.108L0.05 4.75312C0.118 3.98559 0.268 3.66562 0.684 3.0277C0.496 2.86062 0.218 2.71279 0 2.60545C0.17 2.34927 0.425 2.04854 0.496 1.73667C0.13 1.41568 -0.034 0.779784 0.048 0.303875C0.63 0.253246 1.132 0.43956 1.47 0.777759C1.766 0.700804 2.156 0.43956 2.337 0.295774ZM55.162 6.05934C54.715 6.06643 54.334 6.1849 54.021 6.41374C53.707 6.6436 53.461 6.94129 53.28 7.30785C53.1 7.67541 52.99 8.06829 52.947 8.48851H57.3C57.2888 8.07834 57.1949 7.67482 57.024 7.30278C56.8633 6.94676 56.6133 6.63956 56.299 6.41172C55.986 6.18288 55.607 6.06643 55.162 6.05934ZM41.41 6.05934C40.963 6.06643 40.582 6.1849 40.268 6.41374C39.954 6.6436 39.708 6.94129 39.528 7.30785C39.349 7.67541 39.238 8.06829 39.194 8.48851H43.549C43.538 8.0782 43.4438 7.67458 43.272 7.30278C43.1114 6.94671 42.8614 6.63949 42.547 6.41172C42.233 6.18288 41.854 6.06643 41.41 6.05934ZM103.145 6.05934C102.697 6.06643 102.316 6.1849 102.002 6.41374C101.688 6.6436 101.442 6.94129 101.262 7.30785C101.083 7.67541 100.972 8.06829 100.928 8.48851H105.283C105.272 8.07834 105.178 7.67482 105.007 7.30278C104.846 6.94699 104.596 6.63987 104.282 6.41172C103.968 6.18288 103.589 6.06643 103.145 6.05934ZM20.049 2.73L19.993 2.74519C19.9397 2.76034 19.8842 2.76617 19.829 2.7624C19.7457 2.87072 19.6907 2.99852 19.669 3.13402C19.342 4.21545 20.364 4.90805 20.841 6.15655C21.447 7.74123 21.341 7.79388 21.513 8.45205C21.337 6.23654 20.683 4.40581 20.049 2.73ZM1.635 2.70975C1.003 4.38353 0.348 6.21427 0.174 8.42978C0.344 7.7716 0.239 7.71895 0.844 6.13326C1.321 4.88678 2.342 4.19216 2.017 3.11174C2.017 3.11174 1.988 2.89201 1.856 2.73911C1.78149 2.74182 1.70707 2.73154 1.636 2.70874L1.635 2.70975ZM73.326 2.9477V4.27823H72.507V2.94872L73.326 2.9477ZM14.069 1.97867V2.50116C14.6431 2.75787 15.188 3.07702 15.694 3.45298L15.996 3.6879V3.08744C15.3999 2.64093 14.7529 2.26867 14.069 1.97867ZM7.624 1.97665C7.056 2.2146 6.513 2.51331 5.999 2.86467L5.695 3.08238V3.68385C6.18724 3.28562 6.7203 2.94208 7.285 2.65912L7.624 2.49913V1.97665ZM19.336 2.46066C18.996 2.62773 18.776 2.62571 18.776 2.62571C18.861 2.99631 18.782 3.22515 18.782 3.22515L19.479 2.63786L19.481 2.63178C19.4235 2.58791 19.3752 2.53282 19.339 2.46977L19.336 2.46066ZM2.35 2.43838L2.346 2.44952C2.32259 2.48994 2.29401 2.52705 2.261 2.55989L2.233 2.58622L2.203 2.61153L2.205 2.61558L2.904 3.20287C2.904 3.20287 2.824 2.97302 2.909 2.60343C2.909 2.60343 2.689 2.60545 2.35 2.43838ZM20.442 2.20853C20.4384 2.27258 20.4232 2.3354 20.397 2.39383L20.394 2.40699C20.667 2.57204 20.807 2.79177 20.811 2.82923C20.8192 2.84068 20.829 2.8509 20.84 2.85961L20.841 2.85556C20.865 2.82316 21.174 2.59027 21.386 2.54673C21.0759 2.43277 20.7642 2.3234 20.451 2.21865L20.442 2.20853ZM1.242 2.18726L1.232 2.19739C1.232 2.19739 0.448 2.46268 0.298 2.52546C0.51 2.57103 0.818 2.80291 0.842 2.8343C0.842 2.83632 0.842 2.83733 0.844 2.83936C0.846 2.83936 0.875 2.80999 0.874 2.80594C0.877 2.77557 0.984 2.60242 1.194 2.44851L1.29 2.38471L1.288 2.37054C1.26034 2.31331 1.24468 2.25091 1.242 2.18726ZM19.601 1.90374C19.5675 1.9363 19.5408 1.9753 19.5225 2.01845C19.5041 2.06161 19.4945 2.10805 19.4941 2.15503C19.4938 2.20202 19.5027 2.24861 19.5203 2.29205C19.538 2.3355 19.5641 2.37492 19.597 2.40801C19.63 2.4411 19.6691 2.46719 19.7122 2.48473C19.7552 2.50227 19.8013 2.51092 19.8477 2.51017C19.8941 2.50941 19.9399 2.49927 19.9824 2.48033C20.0248 2.46139 20.0631 2.43405 20.095 2.3999C20.1574 2.33305 20.1915 2.24414 20.1901 2.15217C20.1886 2.06019 20.1517 1.97244 20.0872 1.90766C20.0227 1.84288 19.9357 1.8062 19.8449 1.80547C19.754 1.80474 19.6665 1.84001 19.601 1.90374ZM1.591 1.88146C1.52562 1.94726 1.48874 2.03666 1.48846 2.12999C1.48818 2.22332 1.52452 2.31295 1.5895 2.37914C1.65448 2.44534 1.74277 2.48269 1.83494 2.48298C1.92711 2.48326 2.01562 2.44646 2.081 2.38066C2.11337 2.34808 2.13909 2.30937 2.15668 2.26673C2.17428 2.22409 2.1834 2.17835 2.18354 2.13214C2.18368 2.08592 2.17483 2.04013 2.15749 1.99738C2.14016 1.95463 2.11467 1.91576 2.0825 1.88298C2.05033 1.85021 2.01209 1.82417 1.96998 1.80635C1.92787 1.78853 1.8827 1.77929 1.83706 1.77915C1.79142 1.77901 1.7462 1.78797 1.70398 1.80553C1.66176 1.82308 1.62337 1.84889 1.591 1.88146ZM14.767 0.567144L15.659 0.847627C17.069 1.35999 17.575 2.42522 18.636 2.36547C18.8469 2.35077 19.0524 2.29107 19.239 2.1903C19.233 2.11739 19.255 2.0374 19.275 1.96753H19.26C18.374 1.42479 16.434 0.807124 14.767 0.567144ZM6.92 0.544867C5.35 0.771684 3.54 1.33265 2.592 1.85109L2.425 1.94728H2.411C2.431 2.01512 2.453 2.09512 2.446 2.16701C2.632 2.27333 2.822 2.31991 3.049 2.3432C4.048 2.40091 4.556 1.45922 5.787 0.92357L6.027 0.827375L6.92 0.544867ZM10.842 1.32455C10.6274 1.3248 10.4129 1.33358 10.199 1.35088L9.881 1.38125V1.86526C10.415 1.80053 10.954 1.79002 11.49 1.83387L11.809 1.86526V1.38227C11.488 1.34414 11.1652 1.32486 10.842 1.32455ZM20.275 1.10381C20.118 1.28911 20.13 1.34885 20.071 1.59997C20.1693 1.63583 20.2556 1.699 20.32 1.78223L21.408 0.597521C21.004 0.558031 20.525 0.795985 20.275 1.10381ZM0.415 0.573219L0.278 0.576257L1.366 1.76097C1.4306 1.67746 1.5173 1.61426 1.616 1.5787C1.556 1.32961 1.567 1.26886 1.41 1.08254C1.18837 0.824875 0.886925 0.651016 0.555 0.58942L0.415 0.573219ZM19.44 0.613722C19.398 0.725105 19.376 0.987362 19.216 1.16557C19.429 1.34885 19.475 1.4491 19.546 1.62832L19.552 1.62731C19.6179 1.5865 19.6921 1.56155 19.769 1.5544L19.778 1.55643L19.44 0.613722ZM2.247 0.594483L1.909 1.53618C1.9622 1.53885 2.01458 1.55048 2.064 1.5706L2.133 1.60604C2.21 1.42783 2.257 1.3286 2.468 1.14431C2.311 0.96711 2.288 0.704854 2.247 0.594483Z" fill="#5D606B"/>
</svg>
