<svg width="212" height="33" viewBox="0 0 212 33" fill="none" xmlns="http://www.w3.org/2000/svg">
<path fill-rule="evenodd" clip-rule="evenodd" d="M167.347 0.270508V33.002H119.365V0.270508H167.347ZM100.152 24.7606C100.581 24.7606 100.959 24.872 101.287 25.0958C101.615 25.3186 101.862 25.6345 102.029 26.0415C102.196 26.4476 102.279 26.8941 102.279 27.3781C102.279 27.8986 102.187 28.3674 102.003 28.7836C101.837 29.1782 101.557 29.5123 101.199 29.7415C100.848 29.9633 100.479 30.0736 100.091 30.0736C99.807 30.0736 99.553 30.0129 99.328 29.8914C99.1132 29.7793 98.9238 29.623 98.772 29.4327V31.9064H97.922V24.8761H98.696V25.5363L98.809 25.3884C98.963 25.2031 99.132 25.0583 99.316 24.9551C99.546 24.8254 99.825 24.7606 100.152 24.7606ZM174.256 25.3753C174.299 25.3753 174.378 25.4107 174.404 25.4634L176.425 29.2747H176.443L178.463 25.4634C178.49 25.4107 178.568 25.3753 178.612 25.3753H178.752C178.822 25.3753 178.9 25.436 178.908 25.517L179.893 31.4446C179.91 31.5591 179.832 31.6391 179.727 31.6391H178.699C178.621 31.6391 178.542 31.5682 178.534 31.4973L178.142 28.7715H178.124L176.66 31.63C176.644 31.6563 176.623 31.6788 176.597 31.6956C176.571 31.7124 176.542 31.7232 176.512 31.7272H176.355C176.324 31.7243 176.295 31.7139 176.269 31.697C176.243 31.6801 176.222 31.6571 176.207 31.63L174.735 28.7715H174.717L174.334 31.4973C174.327 31.5367 174.307 31.5723 174.277 31.5982C174.247 31.6241 174.208 31.6385 174.169 31.6391H173.141C173.036 31.6391 172.958 31.5591 172.975 31.4446L173.959 25.516C173.965 25.4777 173.984 25.4428 174.013 25.417C174.041 25.3912 174.078 25.3761 174.116 25.3743L174.256 25.3753ZM197.571 25.3753C197.631 25.3753 197.693 25.4188 197.719 25.4725L200.446 31.4092C200.498 31.5236 200.428 31.6391 200.298 31.6391H199.331C199.174 31.6391 199.104 31.5854 199.026 31.4183L198.712 30.7217H196.342L196.029 31.4274C196.005 31.4915 195.962 31.5463 195.906 31.5843C195.849 31.6222 195.783 31.6414 195.715 31.6391H194.756C194.626 31.6391 194.556 31.5236 194.608 31.4092L197.335 25.4725C197.349 25.4444 197.37 25.4207 197.397 25.4036C197.423 25.3866 197.453 25.3768 197.484 25.3753H197.571ZM184.781 25.4634C184.876 25.4634 184.946 25.5423 184.946 25.6304V26.5924C184.946 26.6805 184.876 26.7605 184.781 26.7605H182.367V27.8541H184.354C184.441 27.8541 184.519 27.933 184.519 28.0211V28.9831C184.519 29.0051 184.515 29.0269 184.507 29.0473C184.498 29.0677 184.486 29.0863 184.471 29.1019C184.456 29.1175 184.437 29.1299 184.417 29.1384C184.397 29.1468 184.376 29.1512 184.354 29.1512H182.367V30.342H184.781C184.876 30.342 184.946 30.4209 184.946 30.509V31.471C184.946 31.5591 184.876 31.6391 184.781 31.6391H181.174C181.152 31.6392 181.131 31.6349 181.11 31.6265C181.09 31.6181 181.072 31.6058 181.056 31.5901C181.041 31.5745 181.029 31.5559 181.02 31.5355C181.012 31.515 181.008 31.4931 181.008 31.471V25.6304C181.008 25.5423 181.078 25.4634 181.174 25.4634H184.781ZM188.396 25.4634C190.078 25.4634 191.454 26.8486 191.454 28.5416C191.453 29.3627 191.131 30.1499 190.558 30.7306C189.984 31.3113 189.207 31.638 188.396 31.6391H186.27C186.183 31.6391 186.114 31.5591 186.114 31.471V25.6304C186.114 25.5423 186.184 25.4634 186.27 25.4634H188.396ZM193.728 25.4634C193.816 25.4634 193.894 25.5423 193.894 25.6304V31.471C193.893 31.5152 193.875 31.5572 193.844 31.5884C193.813 31.6197 193.772 31.6378 193.728 31.6391H192.683C192.639 31.6378 192.598 31.6197 192.567 31.5884C192.536 31.5572 192.518 31.5152 192.517 31.471V25.6304C192.517 25.5423 192.596 25.4634 192.683 25.4634H193.728ZM188.309 26.7595H187.473V30.3339H188.309C189.294 30.3339 190.009 29.5481 190.009 28.5416C190.009 27.5452 189.294 26.7595 188.309 26.7595ZM50.529 22.9421V26.9913L50.532 27.2121C50.544 27.7103 50.599 28.0859 50.697 28.3391C50.809 28.6277 51.001 28.8504 51.274 29.0064C51.547 29.1623 51.88 29.2413 52.274 29.2413C52.948 29.2413 53.429 29.0864 53.715 28.7765C54.002 28.4667 54.145 27.8723 54.145 26.9913V22.9421H55.063V26.9964L55.059 27.2536C55.042 27.8389 54.964 28.3128 54.826 28.6763C54.669 29.0914 54.384 29.4286 53.973 29.6888C53.562 29.9481 53.023 30.0787 52.354 30.0787C51.704 30.0787 51.174 29.9653 50.761 29.7385C50.3612 29.5264 50.0481 29.1782 49.877 28.7552C49.701 28.3259 49.612 27.7396 49.612 26.9964V22.9421H50.529ZM110.811 24.7606C111.241 24.7606 111.588 24.8113 111.856 24.9135C112.124 25.0158 112.321 25.1444 112.447 25.2993C112.573 25.4543 112.661 25.6497 112.712 25.8856C112.74 26.0324 112.754 26.2977 112.754 26.6805V28.0404C112.758 28.7188 112.776 29.1552 112.809 29.3486C112.845 29.5613 112.917 29.7638 113.024 29.9592H112.135L112.075 29.8195C112.018 29.6622 111.981 29.4982 111.965 29.3314C111.65 29.6028 111.346 29.7942 111.055 29.9065C110.755 30.0196 110.437 30.0762 110.117 30.0736C109.565 30.0736 109.141 29.9369 108.845 29.6645C108.7 29.5334 108.586 29.3719 108.509 29.1912C108.432 29.0106 108.395 28.8151 108.401 28.6186C108.401 28.3695 108.457 28.1426 108.569 27.9371C108.674 27.7384 108.825 27.5682 109.009 27.4409C109.189 27.3164 109.393 27.2222 109.62 27.1584C109.869 27.0995 110.122 27.0565 110.377 27.0298C111.064 26.9468 111.569 26.8476 111.894 26.7331L111.899 26.5083C111.899 26.157 111.819 25.9099 111.658 25.7661C111.44 25.5717 111.118 25.4745 110.688 25.4745C110.288 25.4745 109.993 25.5454 109.802 25.6871C109.612 25.8289 109.471 26.08 109.379 26.4405L108.547 26.3261L108.599 26.1175C108.675 25.8522 108.782 25.6294 108.921 25.4522C109.094 25.2305 109.345 25.0604 109.672 24.9399C110.039 24.8139 110.424 24.7532 110.811 24.7606ZM105.366 24.7606C106.037 24.7606 106.586 24.9925 107.011 25.4553C107.436 25.918 107.649 26.5691 107.649 27.4075C107.649 27.4581 107.648 27.5351 107.644 27.6374H103.901L103.918 27.8399C103.973 28.3006 104.123 28.6601 104.368 28.9203C104.649 29.217 104.999 29.3658 105.418 29.3658C105.73 29.3658 105.996 29.2828 106.217 29.1167C106.437 28.9507 106.612 28.6854 106.742 28.3219L107.621 28.4322L107.563 28.6216C107.416 29.0509 107.178 29.3911 106.85 29.6433C106.475 29.9298 105.996 30.0736 105.413 30.0736C104.679 30.0736 104.097 29.8448 103.667 29.3871C103.237 28.9294 103.022 28.2864 103.022 27.4602C103.022 26.6056 103.239 25.9413 103.674 25.4694C104.109 24.9966 104.673 24.7606 105.366 24.7606ZM29.855 22.9421V29.9592H29.065V29.3172L28.975 29.4489C28.661 29.865 28.223 30.0736 27.662 30.0736C27.262 30.0736 26.894 29.9622 26.558 29.7395C26.2158 29.5082 25.9453 29.1834 25.778 28.8028C25.594 28.4029 25.502 27.9422 25.502 27.4217C25.502 26.9154 25.585 26.4547 25.752 26.0415C25.919 25.6284 26.17 25.3115 26.504 25.0907C26.8369 24.871 27.2267 24.7562 27.624 24.7606C27.8933 24.7557 28.1599 24.8166 28.401 24.9382C28.6421 25.0599 28.8507 25.2386 29.009 25.4593V22.9421H29.855ZM33.254 24.7606C33.924 24.7606 34.474 24.9925 34.899 25.4553C35.324 25.918 35.537 26.5691 35.537 27.4075C35.537 27.4581 35.535 27.5351 35.532 27.6374H31.788L31.806 27.8399C31.861 28.3006 32.011 28.6601 32.256 28.9203C32.536 29.217 32.886 29.3658 33.306 29.3658C33.618 29.3658 33.884 29.2828 34.105 29.1167C34.325 28.9507 34.5 28.6854 34.629 28.3219L35.509 28.4322L35.451 28.6216C35.304 29.0509 35.066 29.3911 34.738 29.6433C34.363 29.9298 33.884 30.0736 33.301 30.0736C32.567 30.0736 31.984 29.8448 31.554 29.3871C31.124 28.9294 30.909 28.2864 30.909 27.4602C30.909 26.6056 31.127 25.9413 31.561 25.4694C31.996 24.9966 32.561 24.7606 33.254 24.7606ZM43.539 24.7606C43.968 24.7606 44.316 24.8113 44.584 24.9135C44.852 25.0158 45.049 25.1444 45.174 25.2993C45.301 25.4543 45.389 25.6497 45.44 25.8856C45.468 26.0324 45.482 26.2977 45.482 26.6805V28.0404C45.486 28.7188 45.504 29.1552 45.536 29.3486C45.573 29.5613 45.644 29.7638 45.752 29.9592H44.862L44.802 29.8195C44.7449 29.6622 44.7079 29.4982 44.692 29.3314C44.378 29.6028 44.074 29.7942 43.782 29.9065C43.4823 30.0195 43.1648 30.0761 42.845 30.0736C42.293 30.0736 41.869 29.9369 41.573 29.6645C41.4283 29.5334 41.3135 29.3719 41.2369 29.1912C41.1602 29.0106 41.1234 28.8151 41.129 28.6186C41.1266 28.3868 41.1808 28.1581 41.2867 27.9527C41.3926 27.7472 41.5469 27.5715 41.736 27.4409C41.917 27.3164 42.121 27.2222 42.348 27.1584C42.5974 27.0995 42.8502 27.0565 43.105 27.0298C43.791 26.9468 44.297 26.8476 44.622 26.7331L44.627 26.5083C44.627 26.157 44.547 25.9099 44.385 25.7661C44.168 25.5717 43.845 25.4745 43.416 25.4745C43.016 25.4745 42.721 25.5454 42.53 25.6871C42.34 25.8289 42.199 26.08 42.107 26.4405L41.275 26.3261L41.326 26.1175C41.403 25.8522 41.51 25.6294 41.649 25.4522C41.822 25.2305 42.072 25.0604 42.4 24.9399C42.7669 24.8139 43.1516 24.7532 43.539 24.7606ZM94.576 24.7606C95.266 24.7606 95.83 24.9895 96.268 25.4482C96.706 25.9059 96.925 26.5377 96.925 27.3457C96.925 27.9999 96.828 28.5143 96.635 28.8889C96.44 29.2636 96.158 29.5552 95.788 29.7628C95.418 29.9703 95.014 30.0736 94.576 30.0736C93.873 30.0736 93.305 29.8458 92.872 29.3891C92.438 28.9335 92.222 28.2753 92.222 27.4176C92.222 26.4759 92.48 25.7783 92.997 25.3257C93.429 24.949 93.955 24.7606 94.576 24.7606ZM84.763 24.8761V27.8784C84.768 28.2287 84.785 28.4707 84.815 28.6044C84.868 28.8312 84.982 29.0094 85.155 29.138C85.328 29.2676 85.543 29.3314 85.798 29.3314C86.0506 29.3321 86.2987 29.2635 86.516 29.1329C86.7298 29.0119 86.8972 28.8214 86.991 28.5922C87.084 28.3644 87.131 28.0333 87.131 27.5999V24.8761H87.981V29.9592H87.221V29.2119L87.111 29.3618C86.732 29.8367 86.238 30.0736 85.628 30.0736C85.3425 30.076 85.0596 30.0173 84.798 29.9015C84.541 29.7861 84.351 29.6423 84.226 29.4681C84.0945 29.277 84.0051 29.0594 83.964 28.8302C83.929 28.6601 83.912 28.3917 83.912 28.0252V24.8761H84.762H84.763ZM66.053 24.7606C66.743 24.7606 67.308 24.9895 67.746 25.4482C68.184 25.9059 68.403 26.5377 68.403 27.3457C68.403 27.9999 68.306 28.5143 68.113 28.8889C67.918 29.2636 67.636 29.5552 67.266 29.7628C66.896 29.9703 66.492 30.0736 66.054 30.0736C65.351 30.0736 64.783 29.8458 64.35 29.3891C63.916 28.9335 63.7 28.2753 63.7 27.4176C63.7 26.4759 63.958 25.7783 64.475 25.3257C64.907 24.949 65.432 24.7606 66.053 24.7606ZM71.763 24.7606C72.066 24.7606 72.344 24.8163 72.598 24.9257C72.852 25.0361 73.041 25.1809 73.168 25.3591C73.294 25.5383 73.382 25.7499 73.432 25.996C73.464 26.155 73.48 26.4344 73.48 26.8334V29.9592H72.629V26.8668L72.626 26.6987C72.616 26.4304 72.585 26.2248 72.529 26.079C72.4615 25.9042 72.3374 25.7579 72.177 25.6639C71.9975 25.5571 71.7921 25.5031 71.584 25.5079C71.222 25.5079 70.909 25.6244 70.646 25.8573C70.383 26.0902 70.251 26.5316 70.251 27.1827V29.9592H69.401V24.8761H70.166V25.598L70.271 25.4532C70.633 24.9915 71.13 24.7606 71.763 24.7606ZM40.098 22.9421V29.9592H39.248V22.9421H40.098ZM58.845 24.7606C59.148 24.7606 59.425 24.8163 59.679 24.9257C59.933 25.0361 60.123 25.1809 60.249 25.3591C60.375 25.5383 60.463 25.7499 60.514 25.996C60.545 26.155 60.561 26.4344 60.561 26.8334V29.9592H59.711V26.8668L59.707 26.6987C59.698 26.4304 59.666 26.2248 59.611 26.079C59.5435 25.9042 59.4194 25.7579 59.259 25.6639C59.0792 25.5569 58.8735 25.5029 58.665 25.5079C58.303 25.5079 57.99 25.6244 57.727 25.8573C57.464 26.0902 57.332 26.5316 57.332 27.1827V29.9592H56.482V24.8761H57.247V25.598L57.352 25.4532C57.714 24.9915 58.212 24.7606 58.845 24.7606ZM82.612 22.9421V23.7703H78.518V25.919H82.352V26.7423H78.518V29.1309H82.773V29.9592H77.601V22.9421H82.612ZM62.722 24.8761V29.9592H61.87V24.8761H62.722ZM91.158 24.7606C91.445 24.7606 91.736 24.8538 92.033 25.0381L91.739 25.838L91.615 25.7702C91.4592 25.693 91.2884 25.6522 91.115 25.6507C90.9343 25.6493 90.7583 25.7092 90.615 25.8208C90.4626 25.9401 90.3516 26.1053 90.298 26.2927C90.2007 26.6183 90.1528 26.957 90.156 27.2971V29.9592H89.306V24.8761H90.071V25.6456L90.154 25.4998C90.318 25.2204 90.47 25.032 90.612 24.9328C90.7721 24.8197 90.9628 24.7595 91.158 24.7606ZM197.528 28.0657H197.519L196.866 29.5218H198.19L197.528 28.0657ZM44.622 27.4075L44.499 27.4551C44.195 27.5624 43.773 27.6546 43.232 27.7336C42.882 27.7842 42.635 27.8419 42.49 27.9057C42.3548 27.961 42.2392 28.0563 42.1582 28.1791C42.0772 28.3019 42.0346 28.4466 42.036 28.5943C42.036 28.8241 42.122 29.0155 42.294 29.1694C42.466 29.3213 42.717 29.3992 43.048 29.3992C43.376 29.3992 43.667 29.3263 43.922 29.1815C44.178 29.0357 44.365 28.8373 44.485 28.5851C44.576 28.3907 44.622 28.1032 44.622 27.7244V27.4075ZM111.895 27.4075L111.772 27.4551C111.468 27.5624 111.046 27.6546 110.505 27.7336C110.155 27.7842 109.908 27.8419 109.763 27.9057C109.628 27.961 109.512 28.0563 109.431 28.1791C109.35 28.3019 109.308 28.4466 109.309 28.5943C109.309 28.8241 109.395 29.0155 109.567 29.1694C109.739 29.3213 109.99 29.3992 110.321 29.3992C110.649 29.3992 110.941 29.3263 111.195 29.1815C111.451 29.0357 111.638 28.8373 111.758 28.5851C111.849 28.3907 111.895 28.1032 111.895 27.7244V27.4075ZM94.575 25.4735C94.15 25.4735 93.797 25.6355 93.517 25.9575C93.237 26.2795 93.097 26.7666 93.097 27.4176C93.097 28.0677 93.237 28.5558 93.517 28.8798C93.797 29.2038 94.15 29.3658 94.576 29.3658C94.998 29.3658 95.349 29.2028 95.63 28.8768C95.91 28.5517 96.05 28.0556 96.05 27.3883C96.05 26.7605 95.91 26.2846 95.627 25.9605C95.4984 25.8056 95.3374 25.6816 95.1556 25.5975C94.9738 25.5135 94.7758 25.4714 94.576 25.4745L94.575 25.4735ZM66.054 25.4735C65.628 25.4735 65.275 25.6355 64.994 25.9575C64.714 26.2795 64.574 26.7666 64.574 27.4176C64.574 28.0677 64.714 28.5558 64.994 28.8798C65.275 29.2038 65.628 29.3658 66.054 29.3658C66.476 29.3658 66.827 29.2028 67.108 28.8768C67.388 28.5517 67.528 28.0556 67.528 27.3883C67.528 26.7605 67.388 26.2846 67.105 25.9605C66.9764 25.8056 66.8154 25.6816 66.6336 25.5975C66.4518 25.5135 66.2538 25.4704 66.054 25.4735ZM27.704 25.4735C27.326 25.4735 27.01 25.6304 26.757 25.9433C26.503 26.2562 26.376 26.7483 26.376 27.4217C26.376 28.0728 26.512 28.5598 26.783 28.8818C27.053 29.2038 27.373 29.3648 27.743 29.3648C28.114 29.3648 28.43 29.2109 28.69 28.9031C28.95 28.5953 29.08 28.1254 29.08 27.4936C29.08 26.7979 28.947 26.2886 28.683 25.9626C28.418 25.6365 28.092 25.4735 27.704 25.4735ZM100.073 25.436C99.711 25.436 99.39 25.6082 99.111 25.9504C98.832 26.2937 98.693 26.7919 98.693 27.446C98.693 28.1001 98.823 28.5831 99.085 28.896C99.347 29.2099 99.663 29.3648 100.035 29.3648C100.413 29.3648 100.737 29.2028 101.007 28.8788C101.276 28.5548 101.411 28.0535 101.411 27.3741C101.411 26.726 101.279 26.241 101.016 25.919C100.753 25.597 100.439 25.436 100.073 25.436ZM143.313 25.4644L143.159 25.8957L142.917 26.56L142.177 26.5752L141.674 26.5873L142.083 26.886L142.666 27.3083L142.455 27.9766L142.313 28.4333L142.703 28.171L143.313 27.7609L143.924 28.171L144.314 28.4343L144.172 27.9766L143.962 27.3083L144.542 26.886L144.95 26.5873L144.453 26.5752L143.709 26.56L143.469 25.8957L143.312 25.4644H143.313ZM148.542 24.0741L148.387 24.5024L148.147 25.1707L147.407 25.1879L146.904 25.1971L147.314 25.4937L147.897 25.919L147.687 26.5873L147.543 27.043L147.934 26.7828L148.542 26.3727L149.541 27.042L149.404 26.5863L149.192 25.918L149.772 25.4927L150.18 25.1971L149.68 25.1869L148.939 25.1707L148.697 24.5024L148.542 24.0741ZM138.044 24.0468L137.887 24.4751L137.649 25.1454L136.906 25.1576L136.404 25.1687L136.814 25.4654L137.394 25.8907L137.187 26.559L137.041 27.0146L137.431 26.7554L138.044 26.3443L138.652 26.7554L139.047 27.0146L138.9 26.559L138.69 25.8907L139.272 25.4654L139.682 25.1687L139.181 25.1576L138.439 25.1454L138.199 24.4751L138.044 24.0468ZM105.377 25.4694C104.986 25.4694 104.657 25.6011 104.391 25.8664C104.125 26.1317 103.977 26.4851 103.949 26.9296H106.752C106.714 26.5013 106.607 26.1803 106.431 25.9676C106.305 25.8077 106.145 25.6794 105.962 25.5929C105.779 25.5065 105.579 25.4642 105.377 25.4694ZM33.263 25.4694C32.873 25.4694 32.543 25.6011 32.278 25.8664C32.011 26.1317 31.864 26.4851 31.836 26.9296H34.639C34.601 26.5013 34.494 26.1803 34.317 25.9676C34.1914 25.8077 34.0308 25.6794 33.8479 25.5929C33.665 25.5065 33.4648 25.4642 33.263 25.4694ZM67.325 22.9036L66.285 24.2442H65.581L66.21 22.9036H67.325ZM62.721 22.9421V23.9324H61.871V22.9421H62.721ZM152.343 20.2628L152.188 20.6901L151.946 21.3584L151.204 21.3726L150.704 21.3827L151.115 21.6814L151.694 22.1047L151.484 22.775L151.344 23.2306L151.731 22.9674L152.343 22.5593L152.954 22.9684L153.342 23.2296L153.198 22.775L152.991 22.1047L153.572 21.6814L153.981 21.3817L153.479 21.3716L152.739 21.3584L152.497 20.6901L152.343 20.2628ZM134.269 20.2172L134.112 20.6466L133.87 21.3118L133.128 21.328L132.628 21.3392L133.035 21.6338L133.618 22.0621L133.408 22.7304L133.262 23.182L133.655 22.9238L134.263 22.5148L134.875 22.9238L135.264 23.1841L135.123 22.7294L134.913 22.0611L135.496 21.6338L135.901 21.3402L135.401 21.328L134.661 21.3118L134.42 20.6466L134.269 20.2172ZM198.353 15.0804C198.984 15.0804 199.52 15.3255 199.96 15.8145C200.4 16.3046 200.62 17.0043 200.62 17.9126C200.62 19.1419 200.303 20.0188 199.669 20.5453C199.275 20.876 198.777 21.0533 198.265 21.0455C197.845 21.0455 197.493 20.9523 197.209 20.766C197.043 20.6617 196.857 20.4805 196.653 20.2243V23.1041H195.717V15.2435H196.627V15.9907C196.814 15.7345 197.019 15.5371 197.24 15.3963C197.572 15.181 197.959 15.071 198.353 15.0804ZM192.113 15.0541C192.831 15.0541 193.438 15.2971 193.933 15.7801C194.429 16.2651 194.677 16.978 194.677 17.9187C194.677 18.827 194.459 19.5793 194.022 20.1717C193.585 20.765 192.907 21.0617 191.989 21.0617C191.223 21.0617 190.614 20.7984 190.164 20.2739C189.714 19.7494 189.488 19.0447 189.488 18.1607C189.488 17.2129 189.725 16.4585 190.2 15.8966C190.675 15.3346 191.313 15.0541 192.114 15.0541H192.113ZM204.031 15.0906C204.426 15.0906 204.809 15.1847 205.181 15.3731C205.551 15.5604 205.834 15.8034 206.028 16.1021C206.178 16.3289 206.288 16.5871 206.358 16.8747L206.402 17.0975C206.458 17.3567 206.485 17.7708 206.485 18.3389H202.404C202.421 18.912 202.554 19.3707 202.804 19.716C203.054 20.0623 203.44 20.2344 203.964 20.2344C204.452 20.2344 204.842 20.0724 205.134 19.7454C205.3 19.5563 205.421 19.3311 205.487 19.0872H206.407C206.37 19.3314 206.289 19.5663 206.166 19.7798C206.029 20.0329 205.876 20.2415 205.706 20.4035C205.413 20.6888 205.047 20.8855 204.65 20.9716C204.425 21.0283 204.17 21.0556 203.886 21.0556C203.192 21.0556 202.605 20.8005 202.123 20.2901C201.641 19.7798 201.4 19.0649 201.4 18.1445C201.4 17.2392 201.643 16.5041 202.128 15.9381C202.613 15.3731 203.248 15.0906 204.031 15.0906ZM15.839 13.7823C16.431 13.7823 16.919 14.0253 17.304 14.5093V13.8967H18.089V18.2913L18.086 18.5465C18.07 19.2046 17.992 19.6806 17.85 19.9742C17.691 20.3033 17.439 20.5645 17.094 20.7559C16.749 20.9473 16.324 21.0435 15.82 21.0435C15.221 21.0435 14.738 20.9068 14.369 20.6334C14 20.361 13.822 19.9499 13.835 19.4011L14.662 19.5256L14.684 19.6492C14.7171 19.824 14.8116 19.9808 14.95 20.0906C15.161 20.2496 15.45 20.3296 15.815 20.3296C16.209 20.3296 16.513 20.2496 16.728 20.0906C16.942 19.9307 17.087 19.7079 17.162 19.4203C17.207 19.2451 17.227 18.8766 17.224 18.3146C16.852 18.7581 16.389 18.9799 15.834 18.9799C15.144 18.9799 14.61 18.7277 14.232 18.2235C13.854 17.7202 13.665 17.1147 13.665 16.4099C13.665 15.9239 13.751 15.4774 13.925 15.0673C14.0784 14.6823 14.3407 14.3519 14.679 14.1175C15.008 13.8947 15.395 13.7823 15.839 13.7823ZM181.334 15.2161V18.9596C181.334 19.2472 181.379 19.4831 181.469 19.6654C181.636 20.0026 181.946 20.1706 182.399 20.1706C183.052 20.1706 183.495 19.876 183.731 19.2857C183.859 18.9697 183.923 18.5363 183.923 17.9855V15.2161H184.859V20.8551H183.975L183.985 20.0228C183.865 20.2375 183.714 20.4177 183.533 20.5655C183.176 20.8602 182.743 21.008 182.233 21.008C181.44 21.008 180.899 20.7397 180.611 20.202C180.455 19.9145 180.377 19.5297 180.377 19.0487V15.2161H181.334ZM66.8 13.7823C67.228 13.7823 67.606 13.8937 67.934 14.1165C68.262 14.3402 68.509 14.6562 68.676 15.0622C68.843 15.4693 68.926 15.9148 68.926 16.3998C68.926 16.9203 68.834 17.3891 68.65 17.8053C68.4844 18.1993 68.2044 18.5331 67.847 18.7621C67.495 18.9849 67.126 19.0953 66.738 19.0953C66.454 19.0953 66.2 19.0345 65.975 18.913C65.7601 18.8006 65.5707 18.6441 65.419 18.4533V20.928H64.569V13.8967H65.344V14.5579L65.456 14.4101C65.61 14.2238 65.779 14.079 65.963 13.9757C66.193 13.8471 66.472 13.7823 66.8 13.7823ZM2.23 13.7823C2.659 13.7823 3.037 13.8937 3.365 14.1165C3.692 14.3402 3.94 14.6562 4.107 15.0622C4.274 15.4693 4.357 15.9148 4.357 16.3998C4.357 16.9203 4.265 17.3891 4.081 17.8053C3.91516 18.1995 3.63473 18.5332 3.277 18.7621C2.926 18.9849 2.557 19.0953 2.169 19.0953C1.885 19.0953 1.631 19.0345 1.405 18.913C1.19045 18.8005 1.00143 18.6439 0.85 18.4533V20.928H0V13.8967H0.774V14.5579L0.887 14.4101C1.041 14.2238 1.21 14.079 1.394 13.9757C1.624 13.8471 1.903 13.7823 2.23 13.7823ZM179.088 13.1221V14.0699H174.528V16.418H178.745V17.3132H174.528V19.9347H179.166V20.8562H173.519V13.1221H179.088ZM188.754 15.0906L188.964 15.1078L189.055 15.1179V16.1173C188.954 16.0972 188.852 16.0883 188.749 16.091C188.277 16.091 187.915 16.2449 187.662 16.5517C187.409 16.8595 187.282 17.2129 187.282 17.6129V20.8562H186.346V15.2161H187.236V16.1902C187.308 16.0009 187.486 15.77 187.771 15.4976C188.055 15.2262 188.383 15.0895 188.754 15.0895V15.0906ZM192.087 15.8804C191.515 15.8804 191.099 16.1021 190.839 16.5436C190.579 16.9861 190.449 17.5197 190.449 18.1445C190.449 18.7449 190.579 19.2451 190.839 19.6451C191.099 20.0451 191.511 20.2456 192.076 20.2456C192.696 20.2456 193.122 20.0076 193.353 19.5317C193.583 19.0558 193.699 18.5272 193.699 17.945C193.699 17.4185 193.615 16.9901 193.449 16.659C193.186 16.1406 192.731 15.8804 192.087 15.8804ZM198.139 15.9118C197.491 15.9118 197.047 16.2408 196.808 16.897C196.68 17.2473 196.615 17.6939 196.615 18.2336C196.615 18.669 196.68 19.0396 196.808 19.3454C197.051 19.9276 197.494 20.2192 198.139 20.2192C198.576 20.2192 198.939 20.0339 199.229 19.6633C199.518 19.2927 199.662 18.7399 199.662 18.0027C199.662 17.5531 199.598 17.1673 199.47 16.8443C199.227 16.2226 198.784 15.9128 198.139 15.9128V15.9118ZM81.141 11.8442C81.834 11.8442 82.417 12.0235 82.89 12.3809C83.363 12.7383 83.692 13.2416 83.878 13.8886L82.975 14.1043L82.911 13.919C82.755 13.5028 82.543 13.192 82.275 12.9884C81.97 12.7556 81.585 12.6391 81.122 12.6391C80.589 12.6391 80.144 12.7687 79.787 13.0269C79.4314 13.2825 79.1669 13.6476 79.033 14.0679C78.888 14.5033 78.815 14.9528 78.815 15.4146C78.815 16.012 78.901 16.5325 79.073 16.978C79.245 17.4235 79.512 17.7556 79.874 17.9764C80.237 18.1961 80.629 18.3065 81.051 18.3065C81.565 18.3065 82 18.1566 82.356 17.8559C82.712 17.5562 82.953 17.1117 83.079 16.5213L83.996 16.7552L83.926 17.0033C83.725 17.6453 83.402 18.1445 82.958 18.4999C82.459 18.9009 81.848 19.1003 81.127 19.1003C80.38 19.1003 79.773 18.9464 79.305 18.6386C78.837 18.3308 78.48 17.8853 78.236 17.302C77.9894 16.7061 77.8649 16.0657 77.87 15.4196C77.87 14.6896 78.008 14.0527 78.284 13.5079C78.542 12.9827 78.9528 12.5501 79.461 12.2685C79.9761 11.9843 80.5544 11.8383 81.141 11.8442ZM61.221 13.7833C61.912 13.7833 62.476 14.0122 62.914 14.4698C63.352 14.9275 63.571 15.5604 63.571 16.3674C63.571 17.0215 63.474 17.5369 63.281 17.9116C63.087 18.2862 62.805 18.5779 62.434 18.7844C62.064 18.992 61.66 19.0963 61.222 19.0963C60.519 19.0963 59.952 18.8675 59.518 18.4118C59.084 17.9561 58.868 17.298 58.868 16.4393C58.868 15.4976 59.126 14.801 59.643 14.3483C60.075 13.9717 60.6 13.7833 61.221 13.7833ZM72.075 13.7833C72.503 13.7833 72.852 13.8339 73.119 13.9362C73.387 14.0385 73.584 14.1671 73.71 14.321C73.836 14.4759 73.925 14.6713 73.975 14.9083C74.003 15.0551 74.018 15.3194 74.018 15.7021V17.062C74.021 17.7415 74.038 18.1779 74.072 18.3713C74.108 18.5839 74.18 18.7865 74.287 18.9809H73.398L73.338 18.8411C73.281 18.6842 73.244 18.5205 73.228 18.3541C72.913 18.6255 72.61 18.8168 72.318 18.9282C72.018 19.0416 71.7002 19.0986 71.38 19.0963C70.828 19.0963 70.405 18.9596 70.108 18.6872C69.9633 18.5561 69.8485 18.3946 69.7718 18.2139C69.6952 18.0332 69.6583 17.8378 69.664 17.6412C69.664 17.3921 69.72 17.1653 69.832 16.9588C69.9373 16.7601 70.0882 16.5899 70.272 16.4626C70.452 16.3391 70.657 16.2449 70.884 16.1811C71.1331 16.1218 71.3856 16.0785 71.64 16.0515C72.327 15.9685 72.833 15.8692 73.157 15.7548L73.162 15.53C73.162 15.1797 73.082 14.9326 72.921 14.7888C72.703 14.5934 72.381 14.4962 71.951 14.4962C71.551 14.4962 71.256 14.5671 71.066 14.7088C70.875 14.8506 70.734 15.1027 70.643 15.4632L69.811 15.3488L69.861 15.1402C69.938 14.8739 70.045 14.6521 70.184 14.4749C70.357 14.2521 70.608 14.082 70.936 13.9625C71.3026 13.8367 71.688 13.776 72.075 13.7833ZM95.747 13.7833C96.176 13.7833 96.524 13.8339 96.792 13.9362C97.06 14.0385 97.256 14.1671 97.382 14.321C97.509 14.4759 97.597 14.6713 97.647 14.9083C97.676 15.0551 97.69 15.3194 97.69 15.7021V16.8514C97.69 17.6514 97.708 18.1587 97.744 18.3703C97.78 18.5829 97.852 18.7865 97.959 18.9809H97.071L97.011 18.8411C96.954 18.6842 96.917 18.5205 96.901 18.3541C96.585 18.6255 96.282 18.8168 95.991 18.9282C95.6907 19.0417 95.3725 19.0987 95.052 19.0963C94.501 19.0963 94.077 18.9596 93.781 18.6872C93.6361 18.5562 93.5212 18.3947 93.4443 18.214C93.3674 18.0334 93.3305 17.8379 93.336 17.6412C93.336 17.3921 93.392 17.1653 93.504 16.9588C93.6093 16.7601 93.7602 16.5899 93.944 16.4626C94.124 16.3391 94.329 16.2449 94.556 16.1811C94.8051 16.1218 95.0576 16.0785 95.312 16.0515C95.999 15.9685 96.505 15.8692 96.829 15.7548C96.833 15.6373 96.834 15.5624 96.834 15.53C96.834 15.1797 96.754 14.9326 96.594 14.7888C96.376 14.5934 96.053 14.4962 95.624 14.4962C95.224 14.4962 94.929 14.5671 94.738 14.7088C94.548 14.8506 94.406 15.1027 94.315 15.4632L93.483 15.3488L93.534 15.1402C93.61 14.8739 93.718 14.6521 93.856 14.4749C94.03 14.2521 94.28 14.082 94.608 13.9625C94.9746 13.8367 95.36 13.776 95.747 13.7833ZM24.721 13.7833C25.149 13.7833 25.498 13.8339 25.765 13.9362C26.033 14.0385 26.23 14.1671 26.356 14.321C26.482 14.4759 26.571 14.6713 26.621 14.9083C26.649 15.0551 26.664 15.3194 26.664 15.7021V17.062C26.667 17.7415 26.684 18.1779 26.718 18.3713C26.754 18.5839 26.826 18.7865 26.933 18.9809H26.044L25.984 18.8411C25.927 18.6842 25.89 18.5205 25.874 18.3541C25.559 18.6255 25.256 18.8168 24.964 18.9282C24.664 19.0416 24.3462 19.0986 24.026 19.0963C23.474 19.0963 23.051 18.9596 22.754 18.6872C22.6093 18.5561 22.4945 18.3946 22.4179 18.2139C22.3412 18.0332 22.3044 17.8378 22.31 17.6412C22.31 17.3921 22.366 17.1653 22.478 16.9588C22.5833 16.7601 22.7342 16.5899 22.918 16.4626C23.098 16.3391 23.303 16.2449 23.53 16.1811C23.7791 16.1218 24.0316 16.0785 24.286 16.0515C24.973 15.9685 25.479 15.8692 25.803 15.7548L25.808 15.53C25.808 15.1797 25.728 14.9326 25.567 14.7888C25.349 14.5934 25.027 14.4962 24.597 14.4962C24.197 14.4962 23.902 14.5671 23.712 14.7088C23.521 14.8506 23.38 15.1027 23.289 15.4632L22.457 15.3488L22.507 15.1402C22.584 14.8739 22.691 14.6521 22.83 14.4749C23.003 14.2521 23.254 14.082 23.582 13.9625C23.9486 13.8367 24.334 13.776 24.721 13.7833ZM90.301 13.7833C90.973 13.7833 91.521 14.0142 91.947 14.4769C92.372 14.9397 92.585 15.5908 92.585 16.4302C92.585 16.4808 92.583 16.5578 92.58 16.66H88.836L88.854 16.8626C88.909 17.3233 89.059 17.6827 89.304 17.943C89.584 18.2397 89.934 18.3885 90.354 18.3885C90.666 18.3885 90.932 18.3045 91.153 18.1384C91.373 17.9723 91.548 17.7081 91.677 17.3445L92.557 17.4539L92.499 17.6443C92.352 18.0736 92.114 18.4138 91.786 18.6649C91.411 18.9525 90.932 19.0963 90.349 19.0963C89.615 19.0963 89.032 18.8675 88.602 18.4088C88.172 17.9511 87.957 17.3091 87.957 16.4828C87.957 15.6272 88.175 14.964 88.609 14.4911C89.044 14.0192 89.609 13.7823 90.302 13.7823L90.301 13.7833ZM38.169 13.7833C38.597 13.7833 38.946 13.8339 39.213 13.9362C39.481 14.0385 39.678 14.1671 39.804 14.321C39.93 14.4759 40.019 14.6713 40.069 14.9083C40.097 15.0551 40.112 15.3194 40.112 15.7021V17.062C40.115 17.7415 40.133 18.1779 40.166 18.3713C40.202 18.5839 40.274 18.7865 40.381 18.9809H39.492L39.432 18.8411C39.375 18.6842 39.338 18.5205 39.322 18.3541C39.007 18.6255 38.704 18.8168 38.412 18.9282C38.112 19.0416 37.7942 19.0986 37.474 19.0963C36.922 19.0963 36.499 18.9596 36.202 18.6872C36.0573 18.5561 35.9425 18.3946 35.8658 18.2139C35.7892 18.0332 35.7524 17.8378 35.758 17.6412C35.758 17.3921 35.814 17.1653 35.926 16.9588C36.0313 16.7601 36.1822 16.5899 36.366 16.4626C36.546 16.3391 36.751 16.2449 36.978 16.1811C37.2271 16.1218 37.4796 16.0785 37.734 16.0515C38.421 15.9685 38.927 15.8692 39.251 15.7548L39.256 15.53C39.256 15.1797 39.176 14.9326 39.015 14.7888C38.797 14.5934 38.475 14.4962 38.045 14.4962C37.645 14.4962 37.35 14.5671 37.16 14.7088C36.969 14.8506 36.828 15.1027 36.737 15.4632L35.905 15.3488L35.955 15.1402C36.032 14.8739 36.139 14.6521 36.278 14.4749C36.451 14.2521 36.702 14.082 37.03 13.9625C37.3966 13.8367 37.782 13.776 38.169 13.7833ZM10.644 13.7833C11.334 13.7833 11.898 14.0122 12.336 14.4698C12.774 14.9275 12.993 15.5604 12.993 16.3674C12.993 17.0215 12.896 17.5369 12.703 17.9116C12.509 18.2862 12.227 18.5779 11.857 18.7844C11.487 18.992 11.082 19.0963 10.644 19.0963C9.941 19.0963 9.374 18.8675 8.94 18.4118C8.507 17.9561 8.29 17.298 8.29 16.4393C8.29 15.4976 8.549 14.801 9.065 14.3483C9.497 13.9717 10.022 13.7833 10.644 13.7833ZM51.409 13.8977V16.9C51.414 17.2494 51.431 17.4914 51.461 17.626C51.514 17.8518 51.628 18.0301 51.801 18.1597C51.974 18.2883 52.189 18.3531 52.444 18.3531C52.6966 18.3537 52.9447 18.2851 53.162 18.1546C53.3762 18.0337 53.5439 17.8432 53.638 17.6139C53.73 17.385 53.777 17.0539 53.777 16.6206V13.8967H54.627V18.9799H53.867V18.2336L53.757 18.3834C53.378 18.8573 52.884 19.0953 52.274 19.0953C51.9885 19.0977 51.7056 19.039 51.444 18.9231C51.187 18.8077 50.997 18.6639 50.872 18.4898C50.7403 18.2983 50.651 18.0804 50.61 17.8508C50.575 17.6817 50.558 17.4134 50.558 17.0468V13.8977H51.409ZM110.812 13.7833C111.24 13.7833 111.588 13.8339 111.856 13.9362C112.124 14.0385 112.321 14.1671 112.447 14.321C112.573 14.4759 112.661 14.6713 112.712 14.9083C112.74 15.0551 112.754 15.3194 112.754 15.7021V17.062C112.758 17.7415 112.776 18.1779 112.809 18.3713C112.845 18.5839 112.917 18.7865 113.024 18.9809H112.135L112.075 18.8411C112.018 18.6842 111.981 18.5205 111.965 18.3541C111.65 18.6255 111.347 18.8168 111.055 18.9282C110.755 19.0416 110.437 19.0986 110.117 19.0963C109.565 19.0963 109.141 18.9596 108.845 18.6872C108.7 18.5561 108.586 18.3946 108.509 18.2139C108.432 18.0332 108.395 17.8378 108.401 17.6412C108.401 17.3921 108.457 17.1653 108.569 16.9588C108.674 16.7601 108.825 16.5899 109.009 16.4626C109.189 16.3391 109.394 16.2449 109.62 16.1811C109.869 16.1218 110.122 16.0785 110.377 16.0515C111.064 15.9685 111.57 15.8692 111.894 15.7548L111.899 15.53C111.899 15.1797 111.819 14.9326 111.658 14.7888C111.44 14.5934 111.118 14.4962 110.688 14.4962C110.288 14.4962 109.993 14.5671 109.802 14.7088C109.612 14.8506 109.471 15.1027 109.379 15.4632L108.547 15.3488L108.599 15.1402C108.675 14.8739 108.782 14.6521 108.921 14.4749C109.094 14.2521 109.345 14.082 109.672 13.9625C110.039 13.8365 110.425 13.7759 110.812 13.7833ZM100.011 12.1227V13.8977H100.866V14.5681H100.011V17.54L100.012 17.6777C100.017 17.8458 100.032 17.9582 100.056 18.0139C100.086 18.0847 100.134 18.1404 100.202 18.1819C100.292 18.2282 100.392 18.2496 100.492 18.2437C100.587 18.2437 100.712 18.2336 100.866 18.2103L100.989 18.9718L100.814 19.0052C100.644 19.0335 100.488 19.0477 100.346 19.0477C100.037 19.0477 99.798 18.9991 99.628 18.8999C99.4689 18.8136 99.3424 18.6765 99.268 18.51C99.199 18.348 99.165 18.0098 99.165 17.4924V14.5681H98.541V13.8977H99.165V12.6391L100.011 12.1227ZM102.554 13.8977V18.9809H101.703V13.8977H102.554ZM104.232 13.8977L105.31 16.9426L105.423 17.2747C105.497 17.4995 105.566 17.7303 105.631 17.9663C105.707 17.6979 105.812 17.3759 105.948 16.9993L107.063 13.8977H107.938L106.038 18.9809H105.243L103.333 13.8977H104.232ZM57.804 13.7833C58.091 13.7833 58.383 13.8755 58.679 14.0608L58.386 14.8607L58.261 14.7929C58.1052 14.7157 57.9344 14.6749 57.761 14.6734C57.5803 14.672 57.4043 14.7319 57.261 14.8435C57.1088 14.9625 56.9978 15.1274 56.944 15.3143C56.8466 15.6403 56.7987 15.9793 56.802 16.3198V18.9809H55.952V13.8977H56.717V14.6683L56.8 14.5215C56.964 14.243 57.117 14.0537 57.258 13.9555C57.4181 13.8424 57.6088 13.7822 57.804 13.7833ZM21.218 13.7833C21.505 13.7833 21.796 13.8755 22.093 14.0608L21.8 14.8607L21.675 14.7929C21.5192 14.7157 21.3484 14.6749 21.175 14.6734C20.9943 14.672 20.8183 14.7319 20.675 14.8435C20.5228 14.9625 20.4118 15.1274 20.358 15.3143C20.2606 15.6403 20.2127 15.9793 20.216 16.3198V18.9809H19.366V13.8977H20.131V14.6683L20.214 14.5215C20.378 14.243 20.53 14.0537 20.672 13.9555C20.8321 13.8424 21.0228 13.7822 21.218 13.7833ZM49.258 11.9647V12.792H45.165V14.9417H48.998V15.7649H45.165V18.1526H49.419V18.9799H44.248V11.9627H49.258V11.9647ZM7.227 13.7823C7.513 13.7823 7.805 13.8745 8.101 14.0598L7.808 14.8597L7.683 14.7918C7.52755 14.7148 7.35705 14.674 7.184 14.6724C7.00292 14.6708 6.82652 14.7307 6.683 14.8425C6.5308 14.9615 6.41982 15.1264 6.366 15.3133C6.26856 15.6392 6.22067 15.9783 6.224 16.3188V18.9799H5.374V13.8967H6.139V14.6673L6.222 14.5205C6.386 14.242 6.539 14.0527 6.681 13.9544C6.84108 13.8413 7.03181 13.7812 7.227 13.7823ZM86.86 13.7823C87.147 13.7823 87.439 13.8745 87.735 14.0598L87.442 14.8597L87.317 14.7918C87.1612 14.7147 86.9904 14.6738 86.817 14.6724C86.6363 14.671 86.4602 14.7309 86.317 14.8425C86.1648 14.9615 86.0538 15.1264 86 15.3133C85.9026 15.6392 85.8547 15.9783 85.858 16.3188V18.9799H85.008V13.8967H85.773V14.6673L85.856 14.5205C86.02 14.242 86.173 14.0527 86.315 13.9544C86.4748 13.8415 86.6652 13.7814 86.86 13.7823ZM33.234 13.7823C33.732 13.7823 34.114 13.922 34.383 14.2005C34.65 14.48 34.784 14.9093 34.784 15.4905V18.9799H33.938V15.7781L33.936 15.6141C33.928 15.3538 33.901 15.1604 33.856 15.0338C33.7999 14.8808 33.6941 14.7516 33.556 14.6673C33.4024 14.5723 33.225 14.5242 33.045 14.5286C32.692 14.5286 32.399 14.6481 32.165 14.885C31.932 15.123 31.815 15.5037 31.815 16.0272V18.9799H30.965V15.6778L30.961 15.5189C30.944 15.2151 30.876 14.9802 30.757 14.8161C30.618 14.6238 30.391 14.5286 30.077 14.5286C29.837 14.5286 29.615 14.5924 29.412 14.721C29.209 14.8475 29.062 15.0349 28.97 15.2799C28.879 15.526 28.833 15.8804 28.833 16.3431V18.9799H27.983V13.8967H28.743V14.6106L28.844 14.4668C29.0125 14.2492 29.2285 14.0742 29.475 13.9554C29.7216 13.8367 29.992 13.7774 30.265 13.7823C30.637 13.7823 30.942 13.8603 31.18 14.0162C31.418 14.1732 31.586 14.3909 31.683 14.6724C32.081 14.079 32.597 13.7813 33.233 13.7813L33.234 13.7823ZM73.157 16.4292L73.034 16.4758C72.73 16.5831 72.308 16.6762 71.768 16.7542C71.418 16.8048 71.17 16.8626 71.025 16.9264C70.8898 16.9817 70.7741 17.0769 70.6932 17.1998C70.6122 17.3226 70.5696 17.4672 70.571 17.6149C70.571 17.8458 70.657 18.0371 70.829 18.19C71.001 18.344 71.252 18.4199 71.583 18.4199C71.911 18.4199 72.203 18.348 72.458 18.2022C72.713 18.0574 72.9 17.8579 73.02 17.6068C73.112 17.4114 73.157 17.1248 73.157 16.7451V16.4292ZM96.829 16.4292L96.706 16.4758C96.402 16.5831 95.98 16.6762 95.44 16.7542C95.09 16.8048 94.843 16.8626 94.698 16.9264C94.5628 16.9817 94.4472 17.0769 94.3662 17.1998C94.2852 17.3226 94.2426 17.4672 94.244 17.6149C94.244 17.8458 94.33 18.0371 94.502 18.19C94.673 18.344 94.925 18.4199 95.255 18.4199C95.583 18.4199 95.875 18.348 96.13 18.2022C96.385 18.0574 96.573 17.8579 96.692 17.6068C96.784 17.4114 96.829 17.1248 96.829 16.7451V16.4292ZM39.251 16.4292L39.128 16.4758C38.824 16.5831 38.402 16.6762 37.862 16.7542C37.512 16.8048 37.264 16.8626 37.119 16.9264C36.9838 16.9817 36.8682 17.0769 36.7872 17.1998C36.7062 17.3226 36.6636 17.4672 36.665 17.6149C36.665 17.8458 36.752 18.0371 36.923 18.19C37.095 18.344 37.346 18.4199 37.677 18.4199C38.005 18.4199 38.297 18.348 38.552 18.2022C38.807 18.0574 38.994 17.8579 39.114 17.6068C39.206 17.4114 39.251 17.1248 39.251 16.7451V16.4292ZM25.803 16.4292L25.68 16.4758C25.376 16.5831 24.954 16.6762 24.414 16.7542C24.064 16.8048 23.816 16.8626 23.671 16.9264C23.5358 16.9817 23.4202 17.0769 23.3392 17.1998C23.2582 17.3226 23.2156 17.4672 23.217 17.6149C23.217 17.8458 23.304 18.0371 23.475 18.19C23.647 18.344 23.898 18.4199 24.229 18.4199C24.557 18.4199 24.849 18.348 25.104 18.2022C25.359 18.0574 25.546 17.8579 25.666 17.6068C25.758 17.4114 25.803 17.1248 25.803 16.7451V16.4292ZM111.894 16.4292L111.771 16.4758C111.467 16.5831 111.045 16.6762 110.504 16.7542C110.154 16.8048 109.907 16.8626 109.762 16.9264C109.627 16.9817 109.511 17.0769 109.43 17.1998C109.349 17.3226 109.307 17.4672 109.308 17.6149C109.308 17.8458 109.394 18.0371 109.566 18.19C109.738 18.344 109.989 18.4199 110.32 18.4199C110.648 18.4199 110.94 18.348 111.195 18.2022C111.45 18.0574 111.637 17.8579 111.757 17.6068C111.848 17.4114 111.894 17.1248 111.894 16.7451V16.4292ZM66.719 14.4567C66.357 14.4567 66.036 14.6288 65.757 14.9711C65.478 15.3153 65.339 15.8135 65.339 16.4677C65.339 17.1218 65.469 17.6048 65.731 17.9177C65.993 18.2305 66.31 18.3865 66.681 18.3865C67.06 18.3865 67.383 18.2245 67.653 17.9004C67.923 17.5764 68.057 17.0752 68.057 16.3958C68.057 15.7477 67.925 15.2627 67.662 14.9407C67.399 14.6177 67.085 14.4567 66.719 14.4567ZM10.644 14.4952C10.219 14.4952 9.866 14.6572 9.585 14.9792C9.305 15.3012 9.165 15.7872 9.165 16.4383C9.165 17.0894 9.305 17.5774 9.585 17.9004C9.865 18.2245 10.219 18.3865 10.645 18.3865C11.066 18.3865 11.418 18.2245 11.698 17.8984C11.978 17.5734 12.118 17.0772 12.118 16.4099C12.118 15.7821 11.978 15.3052 11.696 14.9812C11.5673 14.8261 11.4061 14.702 11.2242 14.618C11.0422 14.5339 10.844 14.4919 10.644 14.4952ZM2.15 14.4567C1.787 14.4567 1.467 14.6288 1.188 14.9711C0.909 15.3153 0.77 15.8135 0.77 16.4677C0.77 17.1218 0.9 17.6048 1.162 17.9177C1.424 18.2305 1.74 18.3865 2.112 18.3865C2.49 18.3865 2.814 18.2245 3.083 17.9004C3.353 17.5764 3.488 17.0752 3.488 16.3958C3.488 15.7477 3.356 15.2627 3.093 14.9407C2.83 14.6177 2.515 14.4567 2.15 14.4567ZM61.222 14.4952C60.796 14.4952 60.443 14.6572 60.163 14.9792C59.883 15.3012 59.743 15.7872 59.743 16.4383C59.743 17.0894 59.883 17.5774 60.163 17.9004C60.443 18.2245 60.796 18.3865 61.222 18.3865C61.644 18.3865 61.995 18.2245 62.276 17.8984C62.556 17.5734 62.696 17.0772 62.696 16.4099C62.696 15.7821 62.556 15.3052 62.274 14.9812C62.1453 14.8261 61.9842 14.702 61.8022 14.618C61.6202 14.5339 61.422 14.4919 61.222 14.4952ZM15.9 14.4952C15.522 14.4952 15.2 14.6511 14.936 14.962C14.671 15.2728 14.539 15.7345 14.539 16.3472C14.539 17.0155 14.669 17.5015 14.931 17.8073C15.193 18.1141 15.521 18.267 15.915 18.267C16.305 18.267 16.633 18.1151 16.898 17.8103C17.162 17.5055 17.295 17.0276 17.295 16.3765C17.295 15.7538 17.159 15.285 16.886 14.969C16.613 14.6531 16.285 14.4952 15.9 14.4952ZM153.747 14.9903L153.592 15.4176L153.352 16.0859L152.611 16.1001L152.111 16.1102L152.52 16.4079L153.102 16.8332L152.892 17.5015L152.744 17.9572L153.139 17.6939L153.747 17.2868L154.361 17.6929L154.751 17.9561L154.607 17.5015L154.396 16.8332L154.979 16.4079L155.387 16.1102L154.886 16.1001L154.146 16.0859L153.904 15.4176L153.747 14.9903ZM132.862 14.9802L132.707 15.4095L132.465 16.0768L131.725 16.089L131.225 16.0991L132.214 16.8221L131.861 17.947L132.251 17.6838L132.862 17.2747L133.47 17.6838L133.863 17.947L133.511 16.8221L134.091 16.3968L134.501 16.1001L134.001 16.09L133.259 16.0768L133.017 15.4085L132.862 14.9802ZM203.972 15.9178C203.543 15.9178 203.182 16.0748 202.892 16.3887C202.635 16.6691 202.476 17.0281 202.442 17.4093L202.429 17.5865H205.522C205.484 17.1754 205.396 16.8474 205.257 16.6023C205.001 16.1457 204.572 15.9178 203.972 15.9178ZM90.312 14.4901C89.92 14.4901 89.592 14.6227 89.326 14.888C89.059 15.1523 88.912 15.5067 88.884 15.9512H91.687C91.649 15.5229 91.542 15.2019 91.365 14.9883C91.2394 14.8283 91.0788 14.7 90.8959 14.6136C90.713 14.5271 90.5138 14.4849 90.312 14.4901ZM102.554 11.9637V12.954H101.703V11.9637H102.554ZM152.361 9.71074L152.204 10.1421L151.966 10.8114L151.224 10.8236L150.724 10.8327L151.13 11.1304L151.712 11.5557L151.358 12.6796L151.751 12.4194L152.361 12.0073L152.975 12.4194L153.362 12.6796L153.221 12.225L153.008 11.5546L153.59 11.1304L154 10.8327L153.5 10.8225L152.756 10.8124L152.518 10.1421L152.361 9.71074ZM134.285 9.6753L134.128 10.1036L133.888 10.7719L133.148 10.7851L132.648 10.7952L133.056 11.0939L133.636 11.5192L133.426 12.1875L133.284 12.6432L133.671 12.3809L134.283 11.9718L134.895 12.3809L135.285 12.6421L135.141 12.1865L134.931 11.5182L135.515 11.0929L135.921 10.7942L135.42 10.7841L134.678 10.7709L134.44 10.1036L134.285 9.6753ZM92.089 2.80397C92.517 2.80397 92.895 2.91535 93.223 3.13812C93.551 3.3619 93.798 3.67681 93.965 4.08386C94.132 4.49092 94.215 4.93645 94.215 5.42148C94.215 5.94194 94.123 6.40975 93.939 6.82592C93.7736 7.22037 93.4935 7.55448 93.136 7.78381C92.784 8.00557 92.415 8.11594 92.027 8.11594C91.743 8.11594 91.489 8.05518 91.264 7.93367C91.0492 7.82158 90.8598 7.66535 90.708 7.47498V9.94971H89.858V2.91839H90.633V3.57859L90.745 3.43177C90.899 3.24545 91.068 3.10065 91.252 2.99737C91.482 2.86776 91.761 2.80397 92.089 2.80397ZM209.344 3.32848C209.739 3.32848 210.122 3.42164 210.494 3.60998C210.864 3.79731 211.147 4.04032 211.341 4.33903C211.491 4.56585 211.601 4.82507 211.671 5.11264L211.715 5.33439C211.771 5.59361 211.798 6.00776 211.798 6.57682H207.717C207.734 7.14893 207.867 7.60763 208.117 7.95393C208.367 8.2982 208.753 8.47236 209.277 8.47236C209.765 8.47236 210.155 8.30833 210.447 7.98228C210.613 7.79318 210.734 7.56799 210.8 7.3241H211.72C211.683 7.56834 211.601 7.80332 211.478 8.01671C211.342 8.27086 211.188 8.47844 211.018 8.64045C210.725 8.92556 210.36 9.12229 209.963 9.20851C209.737 9.26521 209.483 9.29356 209.198 9.29356C208.505 9.29356 207.918 9.03738 207.436 8.52704C206.954 8.0167 206.713 7.30183 206.713 6.3814C206.713 5.47616 206.956 4.74103 207.441 4.17601C207.926 3.61099 208.561 3.32848 209.344 3.32848ZM186.851 3.32848C187.246 3.32848 187.629 3.42164 188 3.60998C188.37 3.79731 188.653 4.04032 188.847 4.33903C188.997 4.56585 189.107 4.82507 189.177 5.11264L189.222 5.33439C189.277 5.59361 189.305 6.00776 189.305 6.57682H185.223C185.241 7.14893 185.374 7.60763 185.623 7.95393C185.873 8.2982 186.26 8.47236 186.783 8.47236C187.272 8.47236 187.662 8.30833 187.953 7.98228C188.119 7.79328 188.24 7.56808 188.307 7.3241H189.227C189.19 7.56834 189.108 7.80332 188.985 8.01671C188.848 8.27086 188.695 8.47844 188.525 8.64045C188.232 8.92572 187.866 9.12247 187.469 9.20851C187.244 9.26521 186.989 9.29356 186.705 9.29356C186.012 9.29356 185.425 9.03738 184.942 8.52704C184.461 8.0167 184.22 7.30183 184.22 6.3814C184.22 5.47616 184.462 4.74103 184.948 4.17601C185.433 3.61099 186.068 3.32848 186.851 3.32848ZM176.639 1.14841C177.606 1.14841 178.356 1.40662 178.89 1.92202C179.424 2.43843 179.72 3.02471 179.78 3.68086H178.77C178.656 3.18267 178.428 2.78777 178.087 2.49615C177.745 2.20453 177.267 2.05871 176.649 2.05871C175.897 2.05871 175.289 2.32705 174.827 2.86169C174.364 3.39734 174.133 4.21854 174.133 5.32326C174.133 6.22951 174.341 6.96363 174.759 7.52662C175.177 8.09062 175.799 8.37212 176.629 8.37212C177.391 8.37212 177.972 8.07543 178.37 7.48207C178.582 7.17019 178.74 6.75909 178.843 6.24976H179.852C179.762 7.06488 179.464 7.74736 178.958 8.2982C178.351 8.96144 177.533 9.29356 176.504 9.29356C175.616 9.29356 174.871 9.02118 174.268 8.47743C173.474 7.7585 173.077 6.64669 173.077 5.14403C173.077 4.00387 173.375 3.06825 173.971 2.33819C174.616 1.54534 175.505 1.14841 176.639 1.14841ZM192.638 3.31735C193.293 3.31735 193.825 3.44392 194.234 3.69706C194.64 3.9502 194.842 4.34207 194.842 4.8757V8.12404C194.842 8.22226 194.862 8.30124 194.902 8.36098C194.942 8.42174 195.026 8.4511 195.154 8.4511C195.257 8.44777 195.359 8.43728 195.461 8.41971V9.1194C195.352 9.15308 195.241 9.17946 195.128 9.19838C195.052 9.2085 194.948 9.21458 194.816 9.21458C194.494 9.21458 194.26 9.09813 194.114 8.86727C194.026 8.7064 193.971 8.52889 193.954 8.34579C193.763 8.59894 193.489 8.81765 193.132 9.00397C192.775 9.18927 192.382 9.28242 191.952 9.28242C191.435 9.28242 191.012 9.12345 190.685 8.80651C190.525 8.65386 190.398 8.46871 190.314 8.26316C190.229 8.05762 190.188 7.83631 190.194 7.6137C190.194 7.09121 190.355 6.68517 190.678 6.3976C191 6.11003 191.423 5.93181 191.946 5.866L193.439 5.67664C193.653 5.64829 193.797 5.55716 193.87 5.40325C193.918 5.28806 193.939 5.16348 193.933 5.03872C193.933 4.71672 193.819 4.48181 193.592 4.336C193.365 4.19019 193.04 4.11728 192.617 4.11728C192.128 4.11728 191.782 4.25094 191.577 4.51826C191.463 4.66508 191.388 4.88481 191.354 5.17643H190.48C190.497 4.48079 190.72 3.9978 191.148 3.72541C191.576 3.45303 192.073 3.31735 192.638 3.31735ZM197.51 1.87949V3.45404H198.399V4.22866H197.509V7.90836C197.509 8.1048 197.576 8.23643 197.707 8.30326C197.78 8.34174 197.902 8.36098 198.071 8.36098L198.217 8.35896C198.269 8.35693 198.33 8.35288 198.399 8.34579V9.09307C198.289 9.12525 198.177 9.14828 198.064 9.16193C197.947 9.1761 197.822 9.18218 197.687 9.18218C197.25 9.18218 196.953 9.06978 196.797 8.84297C196.641 8.61716 196.563 8.3225 196.563 7.96203V4.22765H195.81V3.45303H196.563V1.8805H197.51V1.87949ZM183.419 3.32747L183.629 3.34468L183.721 3.35481V4.35422C183.62 4.33402 183.517 4.32519 183.414 4.32789C182.942 4.32789 182.58 4.48181 182.327 4.78862C182.074 5.09644 181.947 5.44983 181.947 5.8498V9.09307H181.012V3.45404H181.901V4.42814C181.973 4.23879 182.152 4.00792 182.436 3.73655C182.72 3.46316 183.048 3.32848 183.419 3.32848V3.32747ZM200.286 3.48037V9.09307H199.335V3.48037H200.286ZM202.158 3.45404L203.645 8.04506L205.2 3.45404H206.224L204.124 9.09408H203.125L201.072 3.45404H202.158ZM148.588 5.8741L148.433 6.30444L148.193 6.97274L147.453 6.98692L146.949 6.99704L147.359 7.29474L147.945 7.72002L147.732 8.38832L147.586 8.84398L147.981 8.58375L148.587 8.17467L149.199 8.58375L149.592 8.84398L149.445 8.38832L149.238 7.72002L149.818 7.29474L150.228 6.99805L149.73 6.98692L148.986 6.97375L148.744 6.30444L148.587 5.8741H148.588ZM138.09 5.8741L137.935 6.30444L137.693 6.97274L136.953 6.98692L136.45 6.994L136.858 7.29373L137.441 7.718L137.232 8.38629L137.087 8.84398L137.477 8.5797L138.09 8.17163L138.698 8.5797L139.088 8.84297L138.945 8.38731L138.736 7.718L139.317 7.29271L139.727 6.994L139.227 6.98692L138.485 6.97375L138.243 6.30444L138.09 5.8741ZM193.907 6.22344C193.77 6.30692 193.621 6.36904 193.465 6.40772C193.285 6.45734 193.108 6.49177 192.935 6.51303L192.367 6.58695C192.027 6.63252 191.773 6.70441 191.603 6.80263C191.315 6.96768 191.172 7.23095 191.172 7.59244C191.172 7.86583 191.27 8.08252 191.468 8.24048C191.665 8.39845 191.899 8.47743 192.17 8.47743C192.5 8.47743 192.818 8.39946 193.127 8.24555C193.647 7.98937 193.907 7.57016 193.907 6.98692V6.22344ZM33.773 0.864889C34.466 0.864889 35.049 1.04411 35.522 1.40155C35.994 1.75798 36.324 2.26123 36.51 2.90928L35.607 3.12394L35.543 2.93965C35.387 2.52247 35.175 2.21263 34.907 2.00809C34.602 1.77519 34.217 1.65976 33.754 1.65976C33.221 1.65976 32.776 1.78836 32.419 2.04758C32.0634 2.30315 31.7989 2.66828 31.665 3.0885C31.52 3.52391 31.447 3.97248 31.447 4.43523C31.447 5.03265 31.533 5.55311 31.705 5.99864C31.877 6.44418 32.144 6.7763 32.506 6.99603C32.868 7.21677 33.261 7.32613 33.683 7.32613C34.197 7.32613 34.632 7.17627 34.988 6.87655C35.344 6.57682 35.585 6.13129 35.711 5.54096L36.628 5.77588L36.558 6.02295C36.357 6.66492 36.034 7.16412 35.59 7.52054C35.09 7.92051 34.48 8.121 33.759 8.121C33.012 8.121 32.404 7.96709 31.936 7.65927C31.468 7.35144 31.112 6.9049 30.868 6.32166C30.6216 5.72606 30.4971 5.08602 30.502 4.44029C30.502 3.70921 30.64 3.0723 30.915 2.52855C31.1728 2.00294 31.5836 1.57002 32.092 1.28815C32.6072 1.00431 33.1855 0.858604 33.772 0.864889H33.773ZM83.821 2.80397C84.511 2.80397 85.075 3.03281 85.513 3.4905C85.951 3.94818 86.17 4.58104 86.17 5.38806C86.17 6.04218 86.074 6.55657 85.88 6.93122C85.686 7.30588 85.404 7.5975 85.034 7.80508C84.664 8.01265 84.259 8.11594 83.821 8.11594C83.118 8.11594 82.551 7.88811 82.117 7.43144C81.684 6.97578 81.467 6.3176 81.467 5.45995C81.467 4.51826 81.726 3.82161 82.242 3.36797C82.674 2.9913 83.199 2.80397 83.821 2.80397ZM73.138 2.80397C73.567 2.80397 73.915 2.8546 74.183 2.95586C74.451 3.05914 74.648 3.18672 74.773 3.34165C74.9 3.49657 74.988 3.692 75.039 3.92894C75.067 4.07475 75.081 4.34005 75.081 4.7228V6.08269C75.085 6.76213 75.103 7.19854 75.136 7.39093C75.172 7.60357 75.243 7.80609 75.351 8.00152H74.461L74.401 7.86178C74.344 7.70485 74.307 7.54117 74.291 7.37473C73.977 7.6461 73.673 7.83748 73.381 7.94886C73.0813 8.06177 72.7638 8.11839 72.444 8.11594C71.892 8.11594 71.468 7.98025 71.172 7.70686C71.0273 7.57574 70.9125 7.41421 70.8358 7.23354C70.7592 7.05288 70.7224 6.85743 70.728 6.66087C70.7256 6.42915 70.7798 6.20042 70.8857 5.99498C70.9916 5.78955 71.1459 5.61377 71.335 5.48324C71.516 5.35971 71.72 5.26554 71.947 5.20175C72.1964 5.14244 72.4492 5.09915 72.704 5.07214C73.39 4.98911 73.896 4.88987 74.221 4.77545L74.226 4.55066C74.226 4.1993 74.146 3.95223 73.985 3.80844C73.767 3.61403 73.445 3.51682 73.015 3.51682C72.615 3.51682 72.32 3.5877 72.129 3.72946C71.939 3.87122 71.798 4.12336 71.706 4.48383L70.874 4.3684L70.925 4.16082C71.002 3.89451 71.109 3.67276 71.248 3.49556C71.421 3.27279 71.671 3.10268 71.999 2.9832C72.3659 2.85719 72.7506 2.79655 73.138 2.80397ZM39.686 2.80397C40.376 2.80397 40.94 3.03281 41.378 3.4905C41.816 3.94818 42.035 4.58104 42.035 5.38806C42.035 6.04218 41.939 6.55657 41.745 6.93122C41.551 7.30588 41.269 7.5975 40.899 7.80508C40.529 8.01265 40.124 8.11594 39.686 8.11594C38.983 8.11594 38.416 7.88811 37.982 7.43144C37.549 6.97578 37.332 6.3176 37.332 5.45995C37.332 4.51826 37.591 3.82161 38.107 3.36797C38.539 2.9913 39.064 2.80397 39.686 2.80397ZM66.053 2.80397C66.598 2.80397 67.043 2.94269 67.39 3.22216C67.737 3.50163 67.96 3.89755 68.057 4.41194L67.23 4.54054L67.185 4.37751C67.1195 4.1433 66.9898 3.93266 66.811 3.76997C66.611 3.59783 66.369 3.51176 66.086 3.51176C65.657 3.51176 65.309 3.6677 65.041 3.97856C64.773 4.28942 64.639 4.78153 64.639 5.45489C64.639 6.13838 64.769 6.63454 65.027 6.94338C65.285 7.25322 65.623 7.40815 66.039 7.40815C66.373 7.40815 66.652 7.30385 66.875 7.09729C67.099 6.88971 67.241 6.57075 67.301 6.13939L68.137 6.24976L68.097 6.4624C67.985 6.9454 67.765 7.3322 67.435 7.62079C67.059 7.95089 66.596 8.11695 66.048 8.11695C65.361 8.11695 64.808 7.88912 64.391 7.43447C63.974 6.97882 63.765 6.32773 63.765 5.47919C63.765 4.93038 63.855 4.45042 64.035 4.0383C64.214 3.62719 64.487 3.31836 64.855 3.11179C65.2215 2.90648 65.6342 2.80045 66.053 2.80397ZM97.279 2.80397C97.969 2.80397 98.533 3.03281 98.971 3.4905C99.409 3.94818 99.628 4.58104 99.628 5.38806C99.628 6.04218 99.531 6.55657 99.338 6.93122C99.143 7.30588 98.861 7.5975 98.491 7.80508C98.121 8.01265 97.717 8.11594 97.279 8.11594C96.576 8.11594 96.008 7.88811 95.575 7.43144C95.141 6.97578 94.925 6.3176 94.925 5.45995C94.925 4.51826 95.183 3.82161 95.7 3.36797C96.132 2.9913 96.658 2.80397 97.279 2.80397ZM80.445 0.984373V8.00152H79.655V7.36056L79.565 7.49219C79.251 7.90735 78.813 8.11594 78.252 8.11594C77.852 8.11594 77.484 8.00455 77.148 7.78179C76.8058 7.55052 76.5353 7.22576 76.368 6.84516C76.184 6.44519 76.092 5.98447 76.092 5.46502C76.092 4.95772 76.175 4.49699 76.342 4.08386C76.509 3.67073 76.76 3.35481 77.094 3.13407C77.4269 2.91435 77.8166 2.79948 78.214 2.80397C78.4833 2.79899 78.7499 2.85991 78.991 2.98155C79.2321 3.10318 79.4407 3.28194 79.599 3.50265V0.984373H80.445ZM108.599 2.80397C109.269 2.80397 109.819 3.03484 110.243 3.49758C110.669 3.96033 110.882 4.61142 110.882 5.44983C110.882 5.50046 110.88 5.57842 110.877 5.67968H107.133L107.151 5.88321C107.206 6.34292 107.356 6.7034 107.601 6.96261C107.881 7.2593 108.231 7.40815 108.651 7.40815C108.963 7.40815 109.229 7.32512 109.449 7.15905C109.67 6.99299 109.845 6.72871 109.974 6.36418L110.854 6.47455L110.796 6.66391C110.649 7.09425 110.411 7.43346 110.083 7.68559C109.708 7.97316 109.229 8.11594 108.646 8.11594C107.912 8.11594 107.329 7.8871 106.899 7.42941C106.469 6.97173 106.254 6.32976 106.254 5.50248C106.254 4.64787 106.471 3.98362 106.906 3.51176C107.341 3.0399 107.906 2.80397 108.599 2.80397ZM55.379 2.80397C55.807 2.80397 56.155 2.8546 56.423 2.95586C56.691 3.05914 56.888 3.18672 57.014 3.34165C57.14 3.49657 57.228 3.692 57.279 3.92894C57.307 4.07475 57.321 4.34005 57.321 4.7228V6.08269C57.325 6.76213 57.343 7.19854 57.376 7.39093C57.412 7.60357 57.484 7.80609 57.591 8.00152H56.702L56.642 7.86178C56.585 7.70485 56.548 7.54117 56.532 7.37473C56.217 7.6461 55.913 7.83748 55.622 7.94886C55.322 8.06189 55.0041 8.11851 54.684 8.11594C54.132 8.11594 53.708 7.98025 53.412 7.70686C53.2673 7.57574 53.1525 7.41421 53.0759 7.23354C52.9992 7.05288 52.9624 6.85743 52.968 6.66087C52.968 6.41279 53.024 6.18496 53.136 5.9794C53.2413 5.78072 53.3922 5.61055 53.576 5.48324C53.756 5.35971 53.96 5.26554 54.187 5.20175C54.4364 5.14244 54.6892 5.09915 54.944 5.07214C55.631 4.98911 56.136 4.88987 56.461 4.77545L56.466 4.55066C56.466 4.1993 56.386 3.95223 56.225 3.80844C56.007 3.61403 55.685 3.51682 55.255 3.51682C54.855 3.51682 54.56 3.5877 54.369 3.72946C54.179 3.87122 54.038 4.12336 53.946 4.48383L53.114 4.3684L53.166 4.16082C53.242 3.89451 53.349 3.67276 53.488 3.49556C53.661 3.27279 53.912 3.10268 54.239 2.9832C54.6059 2.85719 54.9916 2.79655 55.379 2.80397ZM69.719 2.91839V8.00152H68.869V2.91839H69.719ZM112.755 0.984373V8.00152H111.905V0.984373H112.755ZM44.626 0.864889C44.866 0.864889 45.13 0.893241 45.42 0.950958L45.292 1.70229L45.119 1.67596C45.0102 1.66241 44.9006 1.65565 44.791 1.65571C44.533 1.65571 44.351 1.71039 44.243 1.82177C44.136 1.93316 44.083 2.14276 44.083 2.44957V2.91839H45.061V3.58872H44.082V8.00152H43.236V3.58872H42.485V2.91839H43.236V2.37768L43.239 2.21364C43.238 2.0116 43.267 1.81054 43.325 1.61723C43.407 1.39447 43.551 1.2122 43.757 1.07449C43.964 0.935769 44.253 0.865902 44.625 0.865902L44.626 0.864889ZM46.578 2.91839V8.00152H45.728V2.91839H46.578ZM50.237 2.80397C50.539 2.80397 50.817 2.85865 51.071 2.96902C51.325 3.07838 51.514 3.22216 51.641 3.40139C51.767 3.58061 51.855 3.79224 51.905 4.03931C51.937 4.19829 51.952 4.47674 51.952 4.8757V8.00152H51.102V4.9081L51.099 4.74001C51.089 4.47269 51.058 4.26613 51.002 4.12133C50.9347 3.94619 50.8106 3.79943 50.65 3.70516C50.4705 3.59838 50.2651 3.54439 50.057 3.54922C49.695 3.54922 49.382 3.66567 49.119 3.89856C48.856 4.13146 48.724 4.57294 48.724 5.22504V7.99949H47.874V2.9194H48.639V3.64238L48.744 3.49657C49.106 3.03484 49.604 2.80397 50.237 2.80397ZM102.469 2.80397C102.756 2.80397 103.047 2.8951 103.343 3.08142L103.05 3.88135L102.925 3.81351C102.77 3.73649 102.599 3.69566 102.426 3.69402C102.245 3.69265 102.069 3.75253 101.926 3.86414C101.773 3.98303 101.662 4.1479 101.608 4.33498C101.511 4.66096 101.463 5.00001 101.467 5.34047V8.00152H100.616V2.91839H101.382V3.68896L101.464 3.54214C101.628 3.26267 101.781 3.07433 101.923 2.9751C102.083 2.86199 102.274 2.80287 102.469 2.80397ZM61.004 2.80397C61.307 2.80397 61.585 2.85865 61.839 2.96902C62.092 3.07838 62.282 3.22216 62.409 3.40139C62.534 3.58061 62.623 3.79224 62.673 4.03931C62.705 4.19829 62.72 4.47674 62.72 4.8757V8.00152H61.87V4.9081L61.867 4.74001C61.857 4.47269 61.825 4.26613 61.77 4.12133C61.7027 3.94619 61.5786 3.79943 61.418 3.70516C61.2385 3.59838 61.0331 3.54439 60.825 3.54922C60.462 3.54922 60.15 3.66567 59.887 3.89856C59.623 4.13146 59.492 4.57294 59.492 5.22504V7.99949H58.641V2.9194H59.407V3.64238L59.511 3.49657C59.874 3.03484 60.371 2.80397 61.004 2.80397ZM74.221 5.44983L74.098 5.49742C73.794 5.60475 73.372 5.69791 72.831 5.77588C72.481 5.82651 72.234 5.88422 72.089 5.94802C71.9538 6.00333 71.8382 6.09861 71.7572 6.22142C71.6762 6.34424 71.6336 6.4889 71.635 6.63657C71.635 6.86743 71.721 7.05881 71.893 7.21171C72.065 7.36461 72.316 7.44156 72.647 7.44156C72.975 7.44156 73.266 7.36866 73.521 7.22386C73.777 7.07805 73.964 6.87958 74.084 6.62745C74.175 6.43304 74.221 6.14547 74.221 5.76676V5.44983ZM56.461 5.44983L56.339 5.49742C56.035 5.60475 55.613 5.69791 55.072 5.77588C54.722 5.82651 54.475 5.88422 54.33 5.94802C54.1948 6.00333 54.0792 6.09861 53.9982 6.22142C53.9172 6.34424 53.8746 6.4889 53.876 6.63657C53.876 6.86743 53.962 7.05881 54.134 7.21171C54.306 7.36461 54.557 7.44156 54.888 7.44156C55.216 7.44156 55.508 7.36866 55.762 7.22386C56.018 7.07805 56.205 6.87958 56.325 6.62745C56.416 6.43304 56.462 6.14547 56.462 5.76676L56.461 5.44983ZM143.313 4.46054L143.16 4.89089L142.918 5.55817L142.178 5.57437L141.675 5.58248L142.085 5.88017L142.667 6.30647L142.457 6.97679L142.312 7.43042L142.704 7.17121L143.314 6.7601L143.927 7.17121L144.317 7.43042L144.175 6.97679L143.964 6.30647L144.544 5.88119L144.951 5.58248L144.454 5.57437L143.712 5.55817L143.47 4.89089L143.313 4.46054ZM39.686 3.51682C39.261 3.51682 38.908 3.67782 38.627 3.99982C38.347 4.32283 38.207 4.80988 38.207 5.45995C38.207 6.11104 38.347 6.59809 38.627 6.92211C38.907 7.24614 39.261 7.40815 39.687 7.40815C40.108 7.40815 40.46 7.24614 40.74 6.92009C41.02 6.59404 41.161 6.09788 41.161 5.4316C41.161 4.80279 41.02 4.32587 40.738 4.00286C40.6093 3.84778 40.4481 3.7237 40.2662 3.63962C40.0842 3.55555 39.886 3.5136 39.686 3.51682ZM83.821 3.51682C83.396 3.51682 83.043 3.67782 82.762 3.99982C82.482 4.32283 82.342 4.80988 82.342 5.45995C82.342 6.11104 82.482 6.59809 82.762 6.92211C83.042 7.24614 83.396 7.40815 83.822 7.40815C84.243 7.40815 84.595 7.24614 84.875 6.92009C85.155 6.59404 85.296 6.09788 85.296 5.4316C85.296 4.80279 85.155 4.32587 84.873 4.00286C84.7443 3.84778 84.5831 3.7237 84.4012 3.63962C84.2192 3.55555 84.021 3.5136 83.821 3.51682ZM97.279 3.51682C96.853 3.51682 96.5 3.67782 96.219 3.99982C95.939 4.32283 95.799 4.80988 95.799 5.45995C95.799 6.11104 95.939 6.59809 96.219 6.92211C96.5 7.24614 96.853 7.40815 97.279 7.40815C97.701 7.40815 98.052 7.24614 98.333 6.92009C98.613 6.59404 98.753 6.09788 98.753 5.4316C98.753 4.80279 98.613 4.32587 98.33 4.00286C98.2014 3.84792 98.0404 3.72391 97.8586 3.63984C97.6768 3.55577 97.4788 3.51375 97.279 3.51682ZM92.009 3.47834C91.646 3.47834 91.325 3.65048 91.046 3.99273C90.767 4.336 90.628 4.83418 90.628 5.48831C90.628 6.14243 90.758 6.62644 91.02 6.93933C91.282 7.2512 91.598 7.40815 91.97 7.40815C92.348 7.40815 92.672 7.24614 92.942 6.92211C93.212 6.59809 93.346 6.09686 93.346 5.41641C93.346 4.76837 93.214 4.28435 92.951 3.96134C92.688 3.63934 92.375 3.47834 92.009 3.47834ZM78.295 3.51682C77.917 3.51682 77.601 3.67276 77.348 3.98564C77.094 4.29853 76.968 4.79165 76.968 5.464C76.968 6.1161 77.103 6.60214 77.374 6.92414C77.644 7.24715 77.964 7.40815 78.334 7.40815C78.705 7.40815 79.021 7.25424 79.281 6.94641C79.541 6.63859 79.671 6.16876 79.671 5.53691C79.671 4.84127 79.539 4.32992 79.274 4.00488C79.009 3.67985 78.683 3.51682 78.295 3.51682ZM209.287 4.15474C208.857 4.15474 208.497 4.31169 208.205 4.62559C207.915 4.93949 207.76 5.33946 207.743 5.82347H210.836C210.798 5.41338 210.71 5.08429 210.571 4.83925C210.315 4.38359 209.887 4.15474 209.287 4.15474ZM186.793 4.15474C186.363 4.15474 186.003 4.31169 185.712 4.62559C185.421 4.93949 185.267 5.33946 185.249 5.82347H188.343C188.305 5.41338 188.216 5.08429 188.078 4.83925C187.821 4.38359 187.393 4.15474 186.793 4.15474ZM108.609 3.51176C108.219 3.51176 107.889 3.64339 107.623 3.90869C107.357 4.17398 107.21 4.52838 107.181 4.97189H109.985C109.947 4.54459 109.84 4.22259 109.663 4.00995C109.537 3.84997 109.377 3.72171 109.194 3.63526C109.011 3.54881 108.811 3.50654 108.609 3.51176ZM200.286 1.35903V2.43235H199.335V1.35903H200.286ZM46.578 0.984373V1.97568H45.728V0.984373H46.578ZM69.721 0.984373V1.97568H68.87V0.984373H69.72H69.721Z" fill="#5D606B"/>
</svg>
